<svg width="28" height="28" viewBox="0 0 28 28" fill="none" xmlns="http://www.w3.org/2000/svg">
<path d="M7.35397 21.354L21.354 7.35397L20.647 6.64697L6.64697 20.647L7.35397 21.354Z" fill="white"/>
<path d="M22.5 7C23.328 7 24 6.328 24 5.5C24 4.672 23.328 4 22.5 4C21.672 4 21 4.672 21 5.5C21 6.328 21.672 7 22.5 7ZM22.5 8C21.119 8 20 6.881 20 5.5C20 4.119 21.119 3 22.5 3C23.881 3 25 4.119 25 5.5C25 6.881 23.881 8 22.5 8ZM5.5 24C6.328 24 7 23.328 7 22.5C7 21.672 6.328 21 5.5 21C4.672 21 4 21.672 4 22.5C4 23.328 4.672 24 5.5 24ZM5.5 25C4.119 25 3 23.881 3 22.5C3 21.119 4.119 20 5.5 20C6.881 20 8 21.119 8 22.5C8 23.881 6.881 25 5.5 25Z" fill="white"/>
</svg>
