<svg width="179" height="141" xmlns="http://www.w3.org/2000/svg" xmlns:xlink="http://www.w3.org/1999/xlink"><svg version="1.1" id="chat" width="39" height="39" viewBox="-2 -2 39 39" y="101.51" xmlns="http://www.w3.org/2000/svg"><defs id="adefs4"><style id="astyle2">.acls-1{fill:#ff3047}</style></defs><g id="aСлой_2" data-name="Слой 2" transform="translate(1 1) scale(.06445)"><g id="aСлой_1-2" data-name="Слой 1"><path class="acls-1" d="M460.75 439.16c89.12-102.79 58.11-262.59-63.1-324.93C362.65 46.45 291.9 0 210.5 0 94.44 0 0 94.43 0 210.5a208.93 208.93 0 0051.25 137.66L4.48 394.32C-5 403.68 1.56 419.93 14.94 420l113 .54A210.27 210.27 0 00301.5 512l195.56-1c13.33-.06 20-16.29 10.46-25.68zM82.76 338A179.37 179.37 0 0130 210.5C30 111 111 30 210.5 30S391 111 391 210.5c0 95.37-75.47 181.27-186.34 180.4l-153.26-.73 31.29-30.88a15 15 0 00.07-21.29zM301.5 482a179.57 179.57 0 01-135.57-61.28c57.11.38 41.95.28 44.57.28 135.4 0 236.5-127 204.69-259.62 83 67.78 89.76 191.78 14 267.64a15 15 0 00.08 21.27l31.3 30.88z" id="apath8" fill="#ff3047"/><path class="acls-1" d="M121 166h180a15 15 0 000-30H121a15 15 0 100 30z" id="apath10" fill="#ff3047"/><path class="acls-1" d="M121 226h180a15 15 0 000-30H121a15 15 0 100 30z" id="apath12" fill="#ff3047"/><path class="acls-1" d="M121 286h180a15 15 0 000-30H121a15 15 0 100 30z" id="apath14" fill="#ff3047"/></g></g></svg><svg version="1.1" id="email" width="39" height="31" viewBox="-2 -2 39 31" x="138.45" y="40" xmlns="http://www.w3.org/2000/svg"><g id="bСлой_2" data-name="Слой 2" transform="matrix(.06496 0 0 .06579 1 1)"><g id="bСлой_1-2" data-name="Слой 1"><path d="M462 0H46A46 46 0 000 46v288a46 46 0 0046 46h416a46 46 0 0046-46V46a46 46 0 00-46-46zM39.1 29.4A18.1 18.1 0 0146 28h416a18.1 18.1 0 016.9 1.4l3 1.2-2.4 2.1L254 219.5l-1.3-1.1L36.1 30.6zM480 334a18.05 18.05 0 01-18 18H46a18.05 18.05 0 01-18-18V60.7l216.8 187.9a13.94 13.94 0 009.2 3.4 14.14 14.14 0 009.2-3.4L480 60.7z" id="bpath8" fill="#ff3047"/></g></g></svg><svg version="1.1" id="graph" width="33" height="33" viewBox="-2 -2 33 33" x="77.32" y="101.51" xmlns="http://www.w3.org/2000/svg"><defs id="cdefs4"><style id="cstyle2">.ccls-1{fill:#fff}</style></defs><g id="cСлой_2" data-name="Слой 2" transform="matrix(.05674 0 0 .05664 .005 0)"><g id="cСлой_1-2" data-name="Слой 1"><path class="ccls-1" d="M466.09 0a44.9 44.9 0 00-42.63 59L238.79 241.86a44.62 44.62 0 00-28.4 0l-33-33.05a44.92 44.92 0 10-85.22 0l-33 33.05a45 45 0 1023.75 18.59l27.89-27.89a44.75 44.75 0 0048 0l27.89 27.89a44.91 44.91 0 1075.88.06L442 82.79A44.9 44.9 0 10466.09 0zM44.91 299.42a15 15 0 1115-15 15 15 0 01-15 15zm89.83-89.83a15 15 0 1115-15 15 15 0 01-15 15zm89.82 89.83a15 15 0 1115-15 15 15 0 01-15 15zM466.09 59.88a15 15 0 1115-15 15 15 0 01-15 15z" id="cpath8" fill="#fff"/><path class="ccls-1" d="M485.48 124.11l-260.88 259-79.33-79.33a15 15 0 00-21.12.05l-89.82 89.8a14.94 14.94 0 00-4.39 10.58V497a15 15 0 0015 15H496a15 15 0 0015-15V134.74c0-13.28-16.09-19.99-25.52-10.63zm-365.72 358H59.88v-71.7l59.88-59.88zm89.83 0h-59.88V350.53l59.88 59.88zm90.9 0h-61v-71.67l61-60zm87.83 0h-58.09v-161.4l58.09-57.17zm92.74 0h-63V233.82l63-63.13z" id="cpath10" fill="#fff"/></g></g></svg><svg version="1.1" id="graph-money" width="50.45" height="43" viewBox="-2 -2 50.45 43" x="49" xmlns="http://www.w3.org/2000/svg"><defs id="ddefs4"><style id="dstyle2">.dcls-1{fill:#fff}</style></defs><g id="dСлой_2" data-name="Слой 2" transform="scale(.10955)"><g id="dСлой_1-2" data-name="Слой 1"><path class="dcls-1" d="M352.4 0c-32.4 0-58 26-58 58.4a57.79 57.79 0 0058 58A58.47 58.47 0 00410.8 58c0-32.4-26-58-58.4-58zm0 103.6A45.58 45.58 0 01306.8 58c0-25.2 20.8-45.2 45.6-45.2a45.4 45.4 0 110 90.8z" id="dpath8" fill="#fff"/><path class="dcls-1" d="M370.8 67.2a10.46 10.46 0 00-1.2-3.2 10 10 0 00-1.6-2.8c-.8-.8-1.2-1.6-2-2.4a7.17 7.17 0 00-2.8-2 10 10 0 00-2.8-1.6c-1.2-.4-2-1.2-3.2-1.6a27.56 27.56 0 01-3.2-1.2 3 3 0 01-1.6-.8c-.4-.4-1.2-.4-1.6-.8-.4-.4-1.2-.4-1.6-.8l-1.2-1.2a2.08 2.08 0 01-.8-1.6 2.4 2.4 0 01-.4-1.6v-2c0-.4.4-1.2.4-1.6.4-.4.4-1.2.8-1.6l1.2-1.2a3.06 3.06 0 012-.8 3.61 3.61 0 012-.4h2.4a3.61 3.61 0 012 .4 17.32 17.32 0 012 .4c.4 0 1.2.4 1.6.4.8 0 1.2.4 1.6.4l2 .8.4-2.4.8-6.4V30l-1.6-.4c-.4 0-1.2-.4-1.6-.4-.4 0-.8-.4-1.6-.4a17.32 17.32 0 00-2-.4c-.8 0-1.2-.4-2-.4h-.4v-7.6h-9.6v8h-.4a14.21 14.21 0 00-3.6 1.6 7.17 7.17 0 00-2.8 2 17.4 17.4 0 00-2.4 2.8 8 8 0 00-1.6 3.2l-1.2 3.6a13.61 13.61 0 00-.4 4 8.81 8.81 0 00.4 3.2 10.46 10.46 0 001.2 3.2c.4.8 1.2 2 1.6 2.8.8.8 1.2 1.6 2 2.4a7.17 7.17 0 002.8 2 10 10 0 002.8 1.6 23.75 23.75 0 013.2 1.6 27.56 27.56 0 013.2 1.2 3 3 0 011.6.8c.4.4 1.2.4 1.6.8.4.4.8.8 1.2.8l1.2 1.2c.4.4.4.8.8 1.6a17.32 17.32 0 01.4 2v2a3 3 0 01-.8 1.6l-1.2 1.2a5.52 5.52 0 01-1.6 1.2c-.4.4-1.2.4-1.6.8a17.32 17.32 0 01-2 .4h-5.2a17.32 17.32 0 01-2-.4 5.69 5.69 0 01-2.4-.8c-.8-.4-1.6-.4-2.4-.8-.4 0-.8-.4-1.2-.4-.4 0-.8-.4-1.2-.4l-2.4-1.2-.4 2.8-.8 7.2v1.2l1.2.4a5.35 5.35 0 013.6.4 7.42 7.42 0 002.8.8c.8.4 2 .4 3.2.8a8.81 8.81 0 003.2.4h.8v8h9.6v-8.4h.4A14.21 14.21 0 00362 86a14 14 0 003.2-2 17.4 17.4 0 002.4-2.8 22.33 22.33 0 002-3.2l1.2-3.6a12.33 12.33 0 00.4-4 8.81 8.81 0 00-.4-3.2z" id="dpath10" fill="#fff"/><path class="dcls-1" d="M324.4 124c-2-2.8-6.4-3.2-9.2-1.2l-64.8 51.6-83.6-34.8a6.38 6.38 0 00-6 .8l-89.6 64a6.39 6.39 0 00-1.6 8.8 5.83 5.83 0 005.2 2.8 6.45 6.45 0 003.6-1.2l86.8-62 84 34.8a7.2 7.2 0 006.4-.8l67.6-53.6c2.8-2 3.2-6.4 1.2-9.2z" id="dpath12" fill="#fff"/><path class="dcls-1" d="M418 343.2h-29.6V158a6.32 6.32 0 00-6.4-6.4h-58.8a6.32 6.32 0 00-6.4 6.4v185.2h-21.6V222a6.32 6.32 0 00-6.4-6.4h-59.2a6.32 6.32 0 00-6.4 6.4v121.2h-21.6V212.4a6.32 6.32 0 00-6.4-6.4h-58.8a6.32 6.32 0 00-6.4 6.4v130.8h-21.6V250a6.32 6.32 0 00-6.4-6.4H42.8a6.32 6.32 0 00-6.4 6.4v93.2h-30a6.4 6.4 0 000 12.8h411.2a6.32 6.32 0 006.4-6.4 5.78 5.78 0 00-6-6.4zm-322.8 0h-46v-86.8h46zm93.6 0h-46V218.8h46zm93.2 0h-46V228.4h46zm93.6 0h-46V164.4h46z" id="dpath14" fill="#fff"/></g></g></svg><svg width="37" height="30" viewBox="-2 -2 37 30" id="lines" x="138.45" y="71" xmlns="http://www.w3.org/2000/svg"><path id="eRectangle_5_copy_2" data-name="Rectangle 5 copy 2" d="M1118 896h3l-12 26h-3zm-9 0h3l-12 26h-3zm-9 0h3l-12 26h-3z" transform="translate(-1088 -896)" fill="#018b5b" fill-rule="evenodd"/></svg><svg version="1.1" id="money" width="49" height="55.08" viewBox="-2 -2 49 55.08" xmlns="http://www.w3.org/2000/svg"><defs id="fdefs4"><style id="fstyle2">.fcls-1{fill:#fff}</style></defs><g id="fСлой_2" data-name="Слой 2" transform="scale(.10489)"><g id="fСлой_1-2" data-name="Слой 1"><path class="fcls-1" d="M220.18 265.78a7.64 7.64 0 00-2.74-.09 18.17 18.17 0 01-16.06-18 8 8 0 10-16 0 34.18 34.18 0 0025.12 32.91v8a8 8 0 1016 0v-7.5a34.11 34.11 0 00-7-67.5 18.14 18.14 0 1118.14-18.14 8 8 0 1016 0A34.17 34.17 0 00226.51 162v-7.27a8 8 0 10-16 0v7.76a34.11 34.11 0 009 67 18.13 18.13 0 01.66 36.24z" id="fpath8" fill="#fff"/><path class="fcls-1" d="M103.68 222.17a115.84 115.84 0 10115.84-115.83 115.84 115.84 0 00-115.84 115.83zm115.84-99.86a99.86 99.86 0 11-99.86 99.86 99.86 99.86 0 0199.86-99.86z" id="fpath10" fill="#fff"/><path class="fcls-1" d="M374.73 357.7l-62.57 29.57a51 51 0 00-43.45-26.81l-57.77-1.59a61 61 0 01-26.25-6.78l-5.88-3a103.7 103.7 0 00-96 .1l.36-13.31a8 8 0 00-7.76-8.21L12 325.88a8 8 0 00-8.2 7.76L0 472.65a8 8 0 007.77 8.21l63.34 1.74h.22a8 8 0 008-7.77l.18-6.65L96 459.37a28.25 28.25 0 0121-2.31l98.26 27.58.52.13a105.31 105.31 0 0021.6 2.23 106.38 106.38 0 0044.52-9.72 7.4 7.4 0 001-.54l142.48-92.16a8 8 0 002.62-10.64 40.36 40.36 0 00-53.27-16.24zM16.19 465.11l3.39-123L67 343.37l-3.38 123zM274.74 463a90.61 90.61 0 01-55.39 6.18l-98-27.51a44.14 44.14 0 00-32.93 3.6L80 449.79 82.26 368a87.78 87.78 0 0189.2-4.76l5.88 3a77.18 77.18 0 0033.16 8.56l57.77 1.59a35 35 0 0133.3 27.92l-86-2.38a8.003 8.003 0 00-.44 16l95 2.61h.22a8 8 0 008-7.77 50.62 50.62 0 00-.77-10.36l64.18-30.33.19-.09a24.4 24.4 0 0127.6 3.86z" id="fpath12" fill="#fff"/><path class="fcls-1" d="M227.51 83.88V8a8 8 0 10-16 0v75.88a8 8 0 0016 0z" id="fpath14" fill="#fff"/><path class="fcls-1" d="M287.42 83.88V47.93a8 8 0 00-16 0v35.95a8 8 0 0016 0z" id="fpath16" fill="#fff"/><path class="fcls-1" d="M167.6 83.88V47.93a8 8 0 10-16 0v35.95a8 8 0 0016 0z" id="fpath18" fill="#fff"/></g></g></svg><svg version="1.1" id="phone" width="41" height="41" viewBox="-2 -2 41 41" x="45" y="55.08" xmlns="http://www.w3.org/2000/svg"><defs id="gdefs4"><style id="gstyle2">.gcls-1{fill:#ff3047}</style></defs><g id="gСлой_2" data-name="Слой 2" transform="matrix(.0693 0 0 .06932 1 1)"><g id="gСлой_1-2" data-name="Слой 1"><path class="gcls-1" d="M46.7 62.3l-.2.1a158.86 158.86 0 000 224.6l173.9 171.5c61.8 61.8 162.4 61.9 224.3.2l.3-.3c10.7-9.9 22.3-20.6 22.9-21.1a41.68 41.68 0 00.1-58.6L404.5 313a41.41 41.41 0 00-29.3-12.2 40.82 40.82 0 00-29.3 12.2L317 341.9a37.54 37.54 0 01-53.1 0l-100.6-98.2a37.66 37.66 0 010-53.2l28.9-28.9a41.52 41.52 0 000-58.6l-63.6-63.6a41.52 41.52 0 00-58.7 0L49.4 59.6l-.7.7-1.2 1.2zM362 329.2a18.56 18.56 0 0126.1-.1l3.4 3.6c39.5 40.9 59.7 61.8 60.1 62.2a18.5 18.5 0 01.2 25.9l-.1.1-12.5 11.6-90.2-90.2zM85.9 55.5a18.59 18.59 0 0126.2 0l63.6 63.6a18.59 18.59 0 010 26.2l-13.1 13.1-89.7-89.8zM54.3 88l2.5-2.9 89.6 89.6-2.2 2.5a60.65 60.65 0 002.7 82.9l100.6 98.2a60.75 60.75 0 0082.9 2.7l2.5-2.2 89.6 89.6-3 2.5a135.14 135.14 0 01-182.7-8.5l-174-171.7A135.64 135.64 0 0154.3 88z" id="gpath8" fill="#ff3047"/><path class="gcls-1" d="M253.5 0A11.57 11.57 0 00242 11.5 11.57 11.57 0 00253.5 23C379.5 23 482 125.5 482 251.5a11.5 11.5 0 0023 0C505 112.8 392.2 0 253.5 0z" id="gpath10" fill="#ff3047"/><path class="gcls-1" d="M253.5 60a11.5 11.5 0 000 23C346.4 83 422 158.6 422 251.5a11.5 11.5 0 0023 0C445 145.9 359.1 60 253.5 60z" id="gpath12" fill="#ff3047"/><path class="gcls-1" d="M253.5 120a11.5 11.5 0 000 23A108.66 108.66 0 01362 251.5a11.5 11.5 0 0023 0C385 179 326 120 253.5 120z" id="gpath14" fill="#ff3047"/><path class="gcls-1" d="M253.5 180a11.5 11.5 0 000 23 48.61 48.61 0 0148.5 48.5 11.5 11.5 0 0023 0 71.61 71.61 0 00-71.5-71.5z" id="gpath16" fill="#ff3047"/></g></g></svg><svg version="1.1" id="registration" width="40" height="40" viewBox="-2 -2 40 40" x="138.45" xmlns="http://www.w3.org/2000/svg"><defs id="hdefs4"><style id="hstyle2">.hcls-1{fill:#018b5b}</style></defs><g id="hСлой_2" data-name="Слой 2" transform="translate(1.006 1) scale(.61328)"><g id="hСлой_1-2" data-name="Слой 1"><path class="hcls-1" d="M27.72 0a27.72 27.72 0 1027.71 27.72A27.74 27.74 0 0027.72 0zm0 52A24.26 24.26 0 1152 27.72 24.28 24.28 0 0127.72 52z" id="hpath8" fill="#018b5b"/><path class="hcls-1" d="M27.72 16.17A6.93 6.93 0 0026 29.81v7.72a1.73 1.73 0 103.46 0v-7.72a6.93 6.93 0 00-1.73-13.64zm0 10.39a3.47 3.47 0 113.46-3.46 3.47 3.47 0 01-3.46 3.46z" id="hpath10" fill="#018b5b"/></g></g></svg><svg version="1.1" id="rocket" width="39" height="48.58" viewBox="-2 -2 39 48.58" x="99.45" xmlns="http://www.w3.org/2000/svg"><defs id="idefs4"><style id="istyle2">.icls-1{fill:#fff}</style></defs><g id="iСлой_2" data-name="Слой 2" transform="scale(.08706)"><g id="iСлой_1-2" data-name="Слой 1"><path class="icls-1" d="M343 245.43a60.74 60.74 0 01-37.11-56 226.74 226.74 0 00-99.3-187.7 10 10 0 00-11.25 0A226.76 226.76 0 0096 189.41a60.74 60.74 0 01-37.11 56A96.38 96.38 0 000 334.33V354a10 10 0 0010 10h101v34a10 10 0 0010 10h16.14a133.48 133.48 0 0058.23 102.27 10 10 0 0011.25 0A133.48 133.48 0 00264.82 408H281a10 10 0 0010-10v-34h101a10 10 0 0010-10v-19.67a96.38 96.38 0 00-59-88.9zM201 22.23a206.79 206.79 0 0166.43 81.58H246a10 10 0 100 20h29.3a207 207 0 0110.66 65.6V344H116V189.41a207 207 0 0110.66-65.6H156a10 10 0 000-20h-21.47A206.73 206.73 0 01201 22.23zM20 334.34a76.44 76.44 0 0146.69-70.5A80.74 80.74 0 0096 242.66V344H20zm181 155.31A113.45 113.45 0 01157.17 408h87.6A113.52 113.52 0 01201 489.65zM271 388H131v-24h140zm111-44h-76V242.66a80.74 80.74 0 0029.31 21.18 76.44 76.44 0 0146.69 70.5z" id="ipath8" fill="#fff"/><path class="icls-1" d="M201 245.09c10.62 0 19.27 7.43 19.27 16.56 0 9.13-8.65 16.57-19.27 16.57s-19.28-7.43-19.28-16.57a10 10 0 00-20 0c0 17 12.45 31.24 29.28 35.37v3.27a10 10 0 0020 0V297c16.82-4.13 29.27-18.42 29.27-35.37 0-20.16-17.62-36.56-39.27-36.56-10.63 0-19.28-7.44-19.28-16.57 0-9.13 8.62-16.5 19.28-16.5 10.66 0 19.27 7.43 19.27 16.57a10 10 0 0020 0c0-17-12.45-31.23-29.27-35.36v-5.64a10 10 0 00-20 0v5.64c-16.83 4.13-29.28 18.41-29.28 35.36-.03 20.11 17.59 36.52 39.28 36.52z" id="ipath10" fill="#fff"/><path class="icls-1" d="M297 438a10 10 0 00-10 10v54a10 10 0 0020 0v-54a10 10 0 00-10-10z" id="ipath12" fill="#fff"/><path class="icls-1" d="M105 438a10 10 0 00-10 10v54a10 10 0 0020 0v-54a10 10 0 00-10-10z" id="ipath14" fill="#fff"/><path class="icls-1" d="M201 123.81a10 10 0 10-7.07-2.93 10.08 10.08 0 007.07 2.93z" id="ipath16" fill="#fff"/></g></g></svg><svg version="1.1" id="support" width="45" height="46.43" viewBox="-2 -2 45 46.43" y="55.08" xmlns="http://www.w3.org/2000/svg"><g id="jСлой_2" data-name="Слой 2" transform="scale(.10201)"><g id="jСлой_1-2" data-name="Слой 1"><path d="M401.9 351.9l-18.5-55.5a56.15 56.15 0 00-43.1-37.4l-53.5-9.7v-4.1a79.22 79.22 0 0023.8-21.2h16.2a24.07 24.07 0 0024-24v-96a104 104 0 00-208 0v56a32.06 32.06 0 0025.5 31.3 80.23 80.23 0 0038.5 53.8v4.1l-53.5 9.7a56.15 56.15 0 00-43.1 37.4l-3.2 9.6-27.2-27.2a8 8 0 010-11.3l31.6-31.6-59.3-59.3-35.7 35.7a56 56 0 000 79.2l108.1 108.1a55.51 55.51 0 0039.6 16.4 54.94 54.94 0 0039.3-16.2l39-35.7-12.2-12.1zm-67.1-152a8 8 0 01-8 8h-6.7a79 79 0 005.2-16.7 31.53 31.53 0 009.5-3.8zm-8-26.2v-27.6a15.9 15.9 0 010 27.6zm-160 0a15.9 15.9 0 010-27.6zm0-53.8v9.1a32.92 32.92 0 00-8 3.3v-28.4a88 88 0 01176 0v28.4a32.92 32.92 0 00-8-3.3v-9.1h-8A87.88 87.88 0 01256.2 94l-9.4-9.4-9.4 9.4a88.05 88.05 0 01-62.6 25.9zm16 56v-40.3a103.82 103.82 0 0064-28.4 103.82 103.82 0 0064 28.4v40.3a63.11 63.11 0 01-8.7 32h-55.3v16H289a63.9 63.9 0 01-106.2-48zm88 76.3v.4l-24 24-24-24v-.4a79.69 79.69 0 0048 0zm-145.4 49.2a39.83 39.83 0 0130.8-26.7l55.9-10.2 34.7 34.7 34.7-34.7 55.9 10.2a39.83 39.83 0 0130.8 26.7l11.5 34.5H214.3l-31.2-31.2-34.6 31.3a8.22 8.22 0 01-11.3 0l-17.5-17.5zM52.1 199.1l36.7 36.7-8.7 8.7-36.7-36.7zm140.3 189.1a40.08 40.08 0 01-56.6 0L27.7 280.1A39.62 39.62 0 0116 251.8a40 40 0 0111.7-28.3l4.4-4.4 36.7 36.7-.3.3a23.9 23.9 0 000 33.9l57.4 57.4a24 24 0 0017 7 23.59 23.59 0 0016.7-6.8l.6-.5 36.9 36.9zm16.4-15L172 336.4l10.6-9.6 36.7 36.7z" id="jpath8" fill="#fff"/></g></g></svg><svg width="38.32" height="38.33" viewBox="-2 -2 38.32 38.33" id="user" x="39" y="101.51" xmlns="http://www.w3.org/2000/svg"><path id="kForma_1" data-name="Forma 1" d="M34.16 17.163A17 17 0 105.68 29.686l-.02.014.55.463a1.157 1.157 0 01.11.085c.3.243.6.474.91.7.1.072.2.145.3.215q.5.341 1.02.648c.07.044.15.088.22.131.38.216.77.419 1.17.606a.572.572 0 01.08.04 16.922 16.922 0 004.12 1.3 17.43 17.43 0 001.47.201c.05 0 .11.008.17.013.45.038.91.062 1.38.062s.92-.024 1.37-.061l.18-.013c.45-.041.9-.1 1.34-.177l.12-.021a16.759 16.759 0 004.05-1.271 1.529 1.529 0 00.14-.064c.38-.179.76-.373 1.12-.579l.27-.156c.34-.2.66-.4.98-.618.12-.078.23-.16.34-.242.27-.2.54-.4.8-.608.05-.046.12-.087.17-.134l.57-.472-.02-.014a16.953 16.953 0 005.57-12.571zm-32.76 0a15.76 15.76 0 1126.21 11.784 4.3 4.3 0 00-.55-.332l-5.23-2.617a1.368 1.368 0 01-.76-1.232v-1.828c.12-.149.25-.319.38-.5a12.3 12.3 0 001.61-3.167 2.233 2.233 0 001.29-2.033v-2.196a2.249 2.249 0 00-.54-1.464v-2.886a5.012 5.012 0 00-1.17-3.625c-1.14-1.3-2.98-1.959-5.48-1.959s-4.34.658-5.48 1.959a5.011 5.011 0 00-1.17 3.625v2.885a2.249 2.249 0 00-.54 1.464v2.192a2.25 2.25 0 00.82 1.744 11.781 11.781 0 001.92 3.95v1.789a1.386 1.386 0 01-.72 1.21L7.1 28.592a3.6 3.6 0 00-.46.294A15.7 15.7 0 011.4 17.163zm25.01 12.754q-.33.235-.66.454c-.11.067-.21.133-.31.2-.29.18-.59.352-.89.513l-.2.1a15.991 15.991 0 01-2.16.913c-.03.009-.05.018-.08.027a15.452 15.452 0 01-2.39.59.278.278 0 00-.04.006c-.38.063-.77.107-1.16.141l-.2.015c-.39.029-.77.047-1.16.047s-.78-.019-1.17-.048c-.07 0-.14-.009-.2-.016-.4-.035-.79-.081-1.17-.144a.383.383 0 01-.05-.009 15.9 15.9 0 01-2.41-.6c-.02-.008-.05-.016-.07-.024a16.5 16.5 0 01-1.15-.441h-.01c-.36-.154-.71-.325-1.05-.5-.05-.023-.1-.046-.14-.07-.32-.169-.62-.351-.93-.542l-.27-.172c-.28-.184-.56-.374-.83-.577a.56.56 0 00-.08-.064l.06-.033 4.89-2.666a2.613 2.613 0 001.36-2.3v-2.229l-.14-.172a10.434 10.434 0 01-1.86-3.842l-.05-.245-.21-.137a1.023 1.023 0 01-.48-.861v-2.19a.99.99 0 01.35-.756l.2-.184v-3.525a3.656 3.656 0 01.86-2.7c.89-1.019 2.42-1.536 4.55-1.536s3.64.513 4.54 1.524a3.707 3.707 0 01.87 2.708v3.524l.2.184a1.025 1.025 0 01.35.756v2.197a1.033 1.033 0 01-.73.974l-.31.094-.1.306a11.271 11.271 0 01-1.54 3.111 6.263 6.263 0 01-.46.586l-.15.175v2.284a2.588 2.588 0 001.45 2.338l5.23 2.617c.03.017.07.034.1.051-.07.053-.14.1-.2.148z" fill="#018b5b" stroke="#018b5b" stroke-linecap="square" stroke-width=".3" fill-rule="evenodd"/></svg><svg version="1.1" id="web" width="41" height="41" viewBox="-2 -2 41 41" x="86" y="55.08" xmlns="http://www.w3.org/2000/svg"><g id="lСлой_2" data-name="Слой 2" transform="matrix(.07977 0 0 .07979 1 .994)"><g id="lСлой_1-2" data-name="Слой 1"><path d="M372.86 376.17A219.336 219.336 0 1066 62.69a219.09 219.09 0 000 313.48A220 220 0 00116.12 413a.85.85 0 00.17.06l.18.11c2.22 1.19 4.47 2.34 6.73 3.45 3.94 1.93 7.85 3.71 11.71 5.31h.09c.45.19 1 .38 1.78.65l.49.18c2.65 1.07 5.14 2 7.51 2.93l.77.26c3.21 1.17 6.27 2.23 9.22 3.14 1.14.35 2.31.63 3.48.91l1.85.47h.1c5 1.4 10 2.77 15.06 3.82l.27.06c1 .2 2 .31 2.93.47 1.4.22 2.79.48 4.19.67l.49.07 5.7.87c2.73.46 5.45.92 8.23 1.19a219.32 219.32 0 0044.47 0c2.71-.28 5.37-.71 8-1.16l6.45-1c2.38-.32 4.74-.65 7-1.12 5.24-1.06 10.33-2.48 15.42-3.91l1.87-.47c1.17-.28 2.33-.55 3.45-.9 2.55-.79 5.16-1.66 7.95-2.66l.44-.16c3-1.07 6.17-2.3 9.78-3.74.55-.19 1.11-.39 1.65-.61 3.66-1.53 7.33-3.23 11-5 .3-.15.61-.27.91-.42 1.62-.79 3.22-1.63 4.82-2.46.72-.38 1.42-.7 2.14-1.08 2-1.09 4-2.33 6-3.47a219.84 219.84 0 0032.61-22.82q6.22-4.97 11.83-10.47zm-25.66-1.61q-3.22 2.65-6.54 5.17-2.15 1.63-4.33 3.21c-2.15 1.54-4.34 3-6.55 4.47-1.53 1-3 2-4.61 3-2.67 1.65-5.39 3.2-8.13 4.73-1.09.61-2.15 1.27-3.25 1.86l-.87.44c-2.05 1.09-4.14 2.13-6.26 3.15s-4.09 1.89-6.15 2.8c-1.44.63-2.82 1.29-4.32 1.91l-1.45.53c-6.12 2.47-11.23 4.32-16.11 5.82-.75.23-1.51.41-2.28.59-.77.18-1.54.36-2.31.57.35-.36.68-.76 1-1.12 1-1.05 2-2.15 2.93-3.25.93-1.1 2.11-2.41 3.14-3.66 1.03-1.25 1.86-2.34 2.79-3.54.93-1.2 2.05-2.71 3.05-4.12.89-1.23 1.76-2.49 2.63-3.78 1-1.5 2-3 3-4.6.82-1.31 1.64-2.64 2.44-4 1-1.66 1.94-3.36 2.9-5.09.76-1.38 1.52-2.76 2.26-4.19.95-1.82 1.88-3.71 2.8-5.61.69-1.43 1.39-2.86 2.07-4.33.93-2 1.82-4.12 2.72-6.21.61-1.46 1.24-2.89 1.85-4.38.9-2.24 1.76-4.56 2.63-6.88.54-1.45 1.1-2.88 1.62-4.36.11-.31.23-.6.34-.91 1.3.7 2.65 1.34 3.93 2.06 1.28.72 2.41 1.35 3.59 2.05 4.21 2.48 8.35 5.05 12.33 7.79l.43.28c4.1 2.83 8 5.86 11.88 9 1.07.86 2.11 1.75 3.16 2.63 1.05.88 2.26 2.05 3.4 3.06-.65.57-1.27 1.18-1.92 1.75-1.31 1.09-2.56 2.13-3.81 3.16zm-237.42 13.32c-2.52-1.64-5-3.32-7.45-5.08-1.33-.95-2.64-1.94-4-2.93q-3.42-2.6-6.73-5.32c-1.26-1-2.52-2.08-3.75-3.15-.65-.56-1.25-1.15-1.88-1.72 1.13-1 2.22-2.06 3.38-3 1.16-.94 2.12-1.79 3.19-2.67 3.84-3.1 7.76-6.11 11.85-8.94l.53-.35c4-2.72 8-5.27 12.23-7.72 1.18-.7 2.39-1.38 3.59-2.06 1.2-.68 2.64-1.36 3.94-2.06l.33.9c.55 1.54 1.12 3 1.68 4.51.84 2.25 1.67 4.5 2.55 6.67.64 1.6 1.32 3.13 2 4.69.85 2 1.69 4 2.57 5.87.73 1.58 1.48 3.11 2.22 4.64.87 1.79 1.74 3.57 2.64 5.3.79 1.51 1.59 3 2.4 4.43.91 1.65 1.83 3.29 2.78 4.88.83 1.41 1.67 2.78 2.53 4.14 1 1.53 1.92 3 2.9 4.49q1.33 2 2.67 3.85c1 1.39 2 2.74 3 4.07s1.87 2.41 2.82 3.56c.95 1.15 2.07 2.46 3.12 3.66 1.05 1.2 1.95 2.2 2.94 3.24.34.36.67.77 1 1.13-.76-.21-1.53-.4-2.3-.57-.77-.17-1.53-.36-2.26-.59-2.68-.83-5.48-1.79-8.43-2.88-2.43-.89-5-1.84-7.72-3l-2.09-.76c-3.27-1.37-6.55-2.88-9.81-4.46-2.14-1-4.3-2.12-6.48-3.26l-.62-.32h-.06l-.2-.1-.1-.05c-3.88-2.08-7.67-4.32-11.4-6.65-1.21-.79-2.36-1.61-3.58-2.39zm33.46-289.2c.68-1.86 1.37-3.71 2.08-5.52.52-1.31 1-2.6 1.57-3.88.72-1.77 1.47-3.49 2.22-5.2.54-1.22 1.08-2.44 1.63-3.63.81-1.77 1.65-3.47 2.5-5.17.51-1 1-2.09 1.55-3.1 1.12-2.18 2.28-4.27 3.45-6.32.27-.47.53-1 .79-1.43 1.43-2.45 2.9-4.8 4.38-7.07.54-.82 1.08-1.57 1.62-2.36 1-1.47 2-2.92 3-4.31.63-.85 1.27-1.66 1.9-2.48 1-1.23 1.93-2.45 2.92-3.62.67-.79 1.34-1.57 2-2.34q1.48-1.66 3-3.23c.67-.7 1.34-1.39 2-2.05 1.09-1.06 2.2-2.06 3.3-3 .61-.54 1.21-1.1 1.82-1.61 1.45-1.21 2.92-2.33 4.4-3.39.28-.2.55-.43.83-.63q2.64-1.83 5.33-3.34c.52-.29 1-.52 1.57-.8 1.28-.67 2.57-1.32 3.87-1.88.65-.28 1.31-.52 2-.77a45.5 45.5 0 013.56-1.23c.7-.21 1.4-.4 2.1-.58.54-.13 1.08-.22 1.63-.34v100.51h-.74c-5.14-.26-10.26-.75-15.35-1.4-1.13-.14-2.25-.31-3.38-.47-5.16-.75-10.29-1.65-15.38-2.81-.35-.08-.7-.19-1.05-.27-4.85-1.13-9.65-2.49-14.42-4-1-.33-2.08-.64-3.11-1q-7.32-2.43-14.5-5.44c-.34-.14-.68-.3-1-.45.15-.46.3-.94.46-1.41.48-1.34.96-2.66 1.45-3.98zm89.06-78.4c1.19.35 2.37.77 3.55 1.23.66.25 1.33.49 2 .78 1.3.55 2.58 1.2 3.87 1.87.52.28 1.05.51 1.57.8q2.68 1.51 5.33 3.34c.28.2.55.43.83.63 1.47 1.06 2.94 2.18 4.39 3.39.61.51 1.22 1.08 1.83 1.62 1.1 1 2.21 2 3.29 3 .68.66 1.35 1.35 2 2.05q1.5 1.56 3 3.23c.68.77 1.35 1.55 2 2.34q1.47 1.75 2.91 3.62c.64.82 1.28 1.63 1.91 2.49 1 1.38 2 2.84 3 4.31.54.78 1.08 1.53 1.61 2.34 1.49 2.28 2.95 4.63 4.38 7.08.28.47.53 1 .81 1.45 1.16 2 2.31 4.13 3.44 6.29.53 1 1 2.08 1.56 3.13.84 1.69 1.67 3.39 2.49 5.15a246.5 246.5 0 011.63 3.63q1.13 2.55 2.22 5.19c.53 1.29 1 2.59 1.57 3.91.71 1.79 1.39 3.62 2.07 5.46.48 1.34 1 2.68 1.45 4 .16.46.31.93.46 1.39-.34.14-.67.31-1 .45q-7.2 3-14.53 5.45c-1 .34-2 .64-3.05 1-4.8 1.52-9.62 2.88-14.49 4l-1 .26c-5.09 1.16-10.23 2.06-15.4 2.81-1.12.16-2.24.33-3.36.47-5.1.65-10.21 1.14-15.37 1.4h-.73V19.36c.54.12 1.09.21 1.63.34.73.18 1.43.37 2.13.58zm63.3 320c-.67 1.83-1.35 3.65-2.05 5.43q-.78 2-1.59 3.93c-.72 1.76-1.46 3.48-2.21 5.18-.54 1.22-1.08 2.44-1.63 3.63-.82 1.76-1.65 3.46-2.49 5.15-.52 1.05-1 2.12-1.57 3.14-1.12 2.16-2.27 4.24-3.43 6.28-.27.48-.53 1-.81 1.45a158.96 158.96 0 01-4.38 7.09c-.53.8-1.07 1.55-1.6 2.33-1 1.48-2 2.93-3 4.32-.63.85-1.27 1.66-1.91 2.48-1 1.24-1.93 2.46-2.91 3.63-.67.79-1.34 1.57-2 2.32-1 1.13-2 2.21-3 3.26-.66.69-1.32 1.38-2 2-1.09 1.07-2.2 2.07-3.31 3.05-.61.53-1.21 1.1-1.82 1.61a84.43 84.43 0 01-4.42 3.41c-.27.19-.53.41-.8.6a62.59 62.59 0 01-5.33 3.34c-.52.29-1 .52-1.55.79-1.29.68-2.59 1.33-3.89 1.9-.65.28-1.31.51-2 .76-1.18.46-2.37.89-3.57 1.24-.69.21-1.39.4-2.08.57-.69.17-1.09.23-1.64.34V318.94h.75c5.14.26 10.25.74 15.34 1.4 1.13.14 2.26.3 3.39.47 5.16.75 10.29 1.65 15.38 2.81l1 .26c4.87 1.14 9.7 2.5 14.49 4 1 .32 2 .63 3 1q7.33 2.43 14.54 5.45c.34.14.67.3 1 .45l-.45 1.37c-.46 1.38-.96 2.73-1.45 4.08zm-87 78.92c-.7-.17-1.39-.36-2.08-.57-1.2-.36-2.39-.78-3.58-1.24-.65-.25-1.31-.48-2-.76-1.3-.57-2.6-1.22-3.9-1.9-.51-.27-1-.5-1.54-.79q-2.68-1.5-5.34-3.34c-.26-.19-.52-.41-.79-.6-1.48-1.07-3-2.2-4.43-3.41-.6-.51-1.2-1.07-1.8-1.61-1.12-1-2.23-2-3.32-3.05-.67-.65-1.33-1.34-2-2-1-1.05-2-2.13-3-3.26a92.83 92.83 0 01-2-2.32c-1-1.17-2-2.39-2.92-3.64a99.51 99.51 0 01-1.9-2.46c-1-1.39-2-2.85-3-4.32-.54-.78-1.08-1.54-1.62-2.35-1.48-2.27-2.95-4.62-4.38-7.08-.27-.46-.52-1-.79-1.43-1.17-2.05-2.33-4.14-3.45-6.31-.53-1-1-2.07-1.55-3.11-.85-1.69-1.69-3.4-2.5-5.17-.55-1.19-1.09-2.41-1.63-3.63q-1.12-2.55-2.22-5.18c-.53-1.29-1-2.59-1.57-3.91-.71-1.8-1.39-3.63-2.07-5.49-.49-1.33-1-2.66-1.45-4-.16-.46-.31-.93-.47-1.39l1-.46q7.19-3 14.5-5.44c1-.34 2.07-.65 3.1-1 4.77-1.51 9.58-2.87 14.42-4l1.06-.27c5.08-1.16 10.21-2.06 15.37-2.81 1.13-.17 2.26-.33 3.4-.47 5.08-.66 10.19-1.14 15.33-1.4h.75v100.46c-.49-.11-1.04-.2-1.58-.34zm-77-119.77q-2.19-10.32-3.8-21c-.18-1.18-.43-2.33-.6-3.52-1.18-8.32-2.05-16.8-2.69-25.36-.19-2.57-.25-5.19-.4-7.79-.24-4.35-.35-8.72-.45-13.1h86.54v72c-.37 0-.73.08-1.1.09-5.52.26-11 .75-16.46 1.43-1.21.14-2.42.33-3.63.5-5.25.74-10.47 1.64-15.65 2.77-.41.08-.84.15-1.25.24-5.47 1.23-10.89 2.74-16.27 4.39q-1.83.56-3.63 1.14c-5.34 1.75-10.64 3.66-15.89 5.82l-.26.1c-.9-3.3-1.83-6.59-2.63-10-.52-2.62-1.18-5.14-1.74-7.76zm-7.09-110c.64-8.56 1.51-17 2.69-25.37.17-1.17.41-2.3.59-3.46q1.62-10.74 3.82-21.1c.55-2.61 1.2-5.13 1.81-7.69.81-3.4 1.74-6.69 2.64-10l.26.1c5.25 2.16 10.55 4.07 15.9 5.82l3.6 1.14c5.39 1.65 10.81 3.16 16.28 4.39l1.28.25c5.18 1.13 10.4 2 15.64 2.76 1.2.17 2.4.35 3.61.5 5.46.68 10.94 1.17 16.46 1.42.37 0 .73.08 1.11.1v72h-86.45c.1-4.39.21-8.76.46-13.11.14-2.59.2-5.18.39-7.78zm121.54-52.66c1.21-.15 2.41-.33 3.61-.5 5.23-.74 10.45-1.63 15.62-2.76l1.31-.25c5.44-1.23 10.83-2.73 16.19-4.37 1.26-.39 2.51-.78 3.76-1.19 5.28-1.72 10.52-3.61 15.71-5.74.12-.06.25-.09.37-.14.9 3.28 1.81 6.55 2.61 9.92.62 2.59 1.29 5.15 1.85 7.78q2.19 10.32 3.8 21c.18 1.17.43 2.31.6 3.5 1.18 8.32 2 16.8 2.68 25.36.2 2.58.26 5.19.4 7.79.24 4.35.36 8.72.46 13.1h-86.45v-72c.37 0 .73-.08 1.1-.1 5.53-.26 11.01-.75 16.47-1.43zm68.11 112.72c-.64 8.56-1.5 17-2.68 25.35-.17 1.21-.43 2.37-.61 3.57-1.07 7.11-2.33 14.12-3.79 21-.56 2.64-1.23 5.2-1.85 7.8-.8 3.36-1.71 6.62-2.61 9.9l-.37-.13c-5.19-2.14-10.43-4-15.71-5.75-1.25-.41-2.5-.8-3.76-1.19-5.36-1.65-10.75-3.15-16.19-4.36-.44-.1-.88-.17-1.32-.27-5.16-1.12-10.37-2-15.61-2.75-1.2-.17-2.4-.36-3.61-.5-5.46-.68-10.95-1.17-16.48-1.43-.36 0-.72-.07-1.09-.09v-72h86.54c-.1 4.38-.22 8.75-.46 13.09-.05 2.53-.11 5.15-.31 7.73zm51.94 107.39c-1.45-1.3-3-2.49-4.46-3.75-1.46-1.26-2.64-2.26-4-3.36q-5.64-4.56-11.6-8.77c-.55-.38-1.06-.8-1.61-1.18-4.56-3.15-9.29-6.1-14.12-8.93-1.31-.76-2.66-1.47-4-2.21-2.21-1.23-4.38-2.52-6.64-3.69.17-.61.29-1.26.46-1.88q2.65-9.65 4.82-19.7c.25-1.15.47-2.31.7-3.47 1.44-7.06 2.73-14.21 3.79-21.5a.78.78 0 010-.16c1.06-7.35 1.85-14.81 2.51-22.33.11-1.24.23-2.46.32-3.71.57-7.22.94-14.51 1.13-21.83 0-.61.08-1.2.1-1.81h86.75a199.29 199.29 0 01-54.06 128.25zm-32.48-146.59c0-.61-.08-1.2-.1-1.81q-.28-11-1.13-21.85c-.09-1.23-.21-2.44-.32-3.67-.66-7.53-1.46-15-2.51-22.38-1.06-7.38-2.37-14.61-3.83-21.76-.22-1.08-.42-2.16-.65-3.24q-2.18-10.22-4.9-20c-.15-.54-.26-1.13-.41-1.68 2.21-1.13 4.32-2.39 6.48-3.59 1.4-.78 2.83-1.53 4.21-2.33 4.82-2.82 9.53-5.76 14.08-8.9.52-.36 1-.76 1.51-1.11q6-4.24 11.73-8.86c1.32-1.07 2.61-2.18 3.9-3.29 1.5-1.27 3.06-2.48 4.52-3.79a199.24 199.24 0 0154.18 128.28zM352.93 69.1c-1.18 1-2.31 2.14-3.51 3.15-1 .88-2.06 1.75-3.12 2.61-3.84 3.1-7.77 6.12-11.86 9l-.67.44c-3.89 2.68-7.93 5.18-12 7.6-1.24.73-2.5 1.44-3.76 2.15-1.26.71-2.58 1.33-3.85 2-.11-.31-.23-.6-.33-.9-.56-1.56-1.14-3.06-1.71-4.59-.84-2.23-1.67-4.47-2.54-6.63-.64-1.59-1.32-3.12-2-4.67-.85-2-1.71-4-2.59-5.94-.71-1.55-1.45-3-2.18-4.54-.89-1.84-1.79-3.67-2.72-5.45-.76-1.46-1.54-2.87-2.32-4.29-.95-1.71-1.9-3.4-2.87-5-.81-1.37-1.63-2.69-2.46-4q-1.49-2.37-3-4.65-1.28-1.89-2.58-3.7-1.56-2.18-3.15-4.24-1.35-1.83-2.71-3.45c-1.07-1.31-2.16-2.57-3.26-3.8-.94-1.06-1.88-2.12-2.84-3.13-.41-.43-.8-.91-1.21-1.33a199.86 199.86 0 0179.24 43.36zM164 27c-1 1-1.95 2.11-2.91 3.2-.96 1.09-2.1 2.4-3.13 3.65-1.03 1.25-1.92 2.39-2.87 3.63-.95 1.24-2 2.61-2.95 4-.95 1.39-1.87 2.64-2.78 4-.91 1.36-1.88 2.84-2.8 4.31-.92 1.47-1.78 2.85-2.65 4.33-.87 1.48-1.79 3.11-2.68 4.7-.89 1.59-1.67 3-2.49 4.59-.82 1.59-1.73 3.43-2.58 5.18-.77 1.58-1.54 3.14-2.28 4.77-.87 1.88-1.7 3.83-2.53 5.78-.68 1.59-1.37 3.16-2 4.79-.87 2.15-1.69 4.37-2.52 6.58-.57 1.54-1.16 3.05-1.72 4.62l-.33.89c-1.32-.7-2.67-1.34-4-2.07-1.33-.73-2.37-1.33-3.53-2-4.21-2.47-8.34-5-12.32-7.78-.15-.11-.31-.2-.46-.3-4.1-2.84-8-5.86-11.89-9-1-.85-2.08-1.72-3.11-2.6-1.21-1-2.34-2.11-3.51-3.15a200 200 0 0179.24-43.41c-.43.4-.82.87-1.2 1.29zM72.68 82c1.44 1.29 3 2.48 4.44 3.73 1.44 1.25 2.67 2.29 4 3.4q5.55 4.48 11.4 8.61c.62.43 1.2.91 1.82 1.34 4.53 3.12 9.24 6.06 14 8.87 1.36.79 2.76 1.53 4.15 2.3 2.17 1.21 4.3 2.48 6.53 3.62-.16.55-.26 1.14-.42 1.69q-2.7 9.78-4.89 20c-.24 1.08-.44 2.17-.66 3.26-1.45 7.11-2.75 14.32-3.81 21.66a.5.5 0 000 .12c-1.06 7.34-1.85 14.8-2.51 22.32-.11 1.25-.23 2.49-.33 3.74q-.85 10.82-1.12 21.79c0 .61-.09 1.22-.1 1.84H18.49A199.2 199.2 0 0172.68 82zm32.56 146.56c0 .62.08 1.22.1 1.84q.27 11 1.12 21.79c.1 1.25.22 2.49.33 3.74.66 7.51 1.45 15 2.51 22.32a.52.52 0 000 .11c1.05 7.35 2.36 14.56 3.81 21.67.22 1.08.42 2.17.66 3.25q2.17 10.21 4.9 20c.15.55.26 1.13.41 1.67-2.23 1.15-4.36 2.42-6.53 3.63-1.39.77-2.79 1.5-4.16 2.3-4.8 2.81-9.5 5.75-14 8.88-.62.43-1.19.89-1.8 1.32q-5.86 4.14-11.4 8.62c-1.38 1.12-2.73 2.28-4.09 3.44-1.36 1.16-3 2.42-4.4 3.7a199.27 199.27 0 01-54.21-128.27z" id="lpath8" fill="#ff3047"/></g></g></svg></svg>