<svg width="20" height="20" viewBox="0 0 20 20" fill="none" xmlns="http://www.w3.org/2000/svg">
<path opacity="0.5" d="M10 20C15.5228 20 20 15.5228 20 10C20 4.47715 15.5228 0 10 0C4.47715 0 0 4.47715 0 10C0 11.5996 0.375618 13.1116 1.04346 14.4525C1.22094 14.8088 1.28001 15.2161 1.17712 15.6006L0.581509 17.8266C0.322955 18.793 1.20702 19.677 2.17335 19.4185L4.39938 18.8229C4.78394 18.72 5.19121 18.7791 5.54753 18.9565C6.88836 19.6244 8.40036 20 10 20Z" fill="white"/>
<path d="M9 10.5C9 11.3284 9.67159 12 10.5 12C11.3284 12 12 11.3284 12 10.5C12 9.67159 11.3284 9 10.5 9C9.67159 9 9 9.67159 9 10.5Z" fill="#1F3069"/>
<path d="M4 10.5C4 11.3284 4.67158 12 5.5 12C6.32842 12 7 11.3284 7 10.5C7 9.67159 6.32842 9 5.5 9C4.67158 9 4 9.67159 4 10.5Z" fill="#1F3069"/>
<path d="M14 10.5C14 11.3284 14.6716 12 15.5 12C16.3284 12 17 11.3284 17 10.5C17 9.67159 16.3284 9 15.5 9C14.6716 9 14 9.67159 14 10.5Z" fill="#1F3069"/>
</svg>
