<svg width="16" height="16" viewBox="0 0 16 16" fill="none" xmlns="http://www.w3.org/2000/svg">
<path opacity="0.5" d="M10.1991 0C9.3137 0 8.60116 0.712551 7.1761 2.13765L2.98657 6.32713L9.03278 12.3733L13.2222 8.18381C14.6474 6.75874 15.3599 6.04621 15.3599 5.16075C15.3599 4.27531 14.6474 3.56275 13.2222 2.13765C11.7972 0.712551 11.0846 0 10.1991 0Z" fill="white"/>
<path d="M9.03287 12.3736L2.98667 6.32739L2.13765 7.17637C0.712551 8.60144 0 9.31406 0 10.1995C0 11.0849 0.712551 11.7975 2.13765 13.2226C3.56275 14.6476 4.27531 15.3603 5.16075 15.3603C6.04621 15.3603 6.75874 14.6476 8.18381 13.2226L9.03287 12.3736Z" fill="white"/>
<g opacity="0.5">
<path d="M5.14785 15.3599H5.12C5.12926 15.3601 5.13855 15.3598 5.14785 15.3599Z" fill="#1C274C"/>
<path d="M5.17371 15.3601C5.85331 15.3548 6.43325 14.9281 7.31602 14.0801H15.3601C15.7135 14.0801 16.0001 14.3666 16.0001 14.7201C16.0001 15.0735 15.7135 15.3601 15.3601 15.3601H5.17371Z" fill="white"/>
</g>
</svg>
