<?xml version="1.0" encoding="UTF-8"?>
<svg xmlns="http://www.w3.org/2000/svg" xmlns:xlink="http://www.w3.org/1999/xlink" width="14pt" height="14pt" viewBox="0 0 14 14" version="1.1">
<g id="surface1">
<path style=" stroke:none;fill-rule:nonzero;fill:rgb(0%,0%,0%);fill-opacity:1;" d="M 8.632812 7 L 10.734375 4.898438 C 11.199219 4.433594 11.199219 3.734375 10.734375 3.265625 C 10.265625 2.800781 9.566406 2.800781 9.101562 3.265625 L 7 5.367188 L 4.898438 3.265625 C 4.433594 2.800781 3.734375 2.800781 3.265625 3.265625 C 2.800781 3.734375 2.800781 4.433594 3.265625 4.898438 L 5.367188 7 L 3.265625 9.101562 C 2.800781 9.566406 2.800781 10.265625 3.265625 10.734375 C 3.5 10.96875 3.792969 11.082031 4.082031 11.082031 C 4.375 11.082031 4.667969 10.96875 4.898438 10.734375 L 7 8.632812 L 9.101562 10.734375 C 9.332031 10.96875 9.625 11.082031 9.917969 11.082031 C 10.207031 11.082031 10.5 10.96875 10.734375 10.734375 C 11.199219 10.265625 11.199219 9.566406 10.734375 9.101562 Z M 8.632812 7 "/>
</g>
</svg>
