<?xml version="1.0" encoding="UTF-8"?>
<svg xmlns="http://www.w3.org/2000/svg" xmlns:xlink="http://www.w3.org/1999/xlink" width="16pt" height="16pt" viewBox="0 0 16 16" version="1.1">
<g id="surface1">
<path style="fill:none;stroke-width:2;stroke-linecap:round;stroke-linejoin:round;stroke:rgb(0%,0%,0%);stroke-opacity:1;stroke-miterlimit:10;" d="M 16.84375 3.546875 L 20.132812 10.53125 C 20.265625 10.820312 20.53125 11.023438 20.835938 11.070312 L 28.195312 12.1875 C 28.96875 12.304688 29.273438 13.296875 28.71875 13.867188 L 23.390625 19.304688 C 23.171875 19.53125 23.070312 19.851562 23.125 20.171875 L 24.382812 27.851562 C 24.507812 28.648438 23.703125 29.265625 23.015625 28.882812 L 16.4375 25.257812 C 16.164062 25.109375 15.835938 25.109375 15.5625 25.257812 L 8.984375 28.882812 C 8.296875 29.265625 7.492188 28.648438 7.625 27.851562 L 8.882812 20.171875 C 8.929688 19.851562 8.828125 19.53125 8.609375 19.304688 L 3.28125 13.867188 C 2.726562 13.296875 3.03125 12.304688 3.804688 12.1875 L 11.164062 11.070312 C 11.46875 11.023438 11.734375 10.820312 11.867188 10.53125 L 15.15625 3.546875 C 15.5 2.820312 16.5 2.820312 16.84375 3.546875 Z M 16.84375 3.546875 " transform="matrix(0.5,0,0,0.5,0,0)"/>
</g>
</svg>
