<?xml version="1.0" encoding="UTF-8"?>
<svg xmlns="http://www.w3.org/2000/svg" xmlns:xlink="http://www.w3.org/1999/xlink" width="21pt" height="21pt" viewBox="0 0 21 21" version="1.1">
<g id="surface1">
<path style=" stroke:none;fill-rule:nonzero;fill:rgb(0%,0%,0%);fill-opacity:1;" d="M 10 2.855469 C 6.058594 2.855469 2.855469 6.058594 2.855469 10 C 2.855469 13.941406 6.058594 17.144531 10 17.144531 C 13.941406 17.144531 17.144531 13.941406 17.144531 10 C 17.144531 6.058594 13.941406 2.855469 10 2.855469 Z M 10 16.019531 C 6.679688 16.019531 3.980469 13.320312 3.980469 10 C 3.980469 6.679688 6.679688 3.980469 10 3.980469 C 13.320312 3.980469 16.019531 6.679688 16.019531 10 C 16.019531 13.320312 13.320312 16.019531 10 16.019531 Z M 10 16.019531 "/>
<path style=" stroke:none;fill-rule:nonzero;fill:rgb(0%,0%,0%);fill-opacity:1;" d="M 8.871094 8.601562 C 8.871094 8.148438 9.53125 8.070312 10.105469 8.070312 C 10.644531 8.070312 11.382812 8.324219 12 8.644531 L 12.121094 7.398438 C 11.8125 7.222656 11.097656 7.011719 10.371094 6.96875 L 10.546875 5.699219 L 9.367188 5.699219 L 9.542969 6.96875 C 8.019531 7.113281 7.523438 7.992188 7.523438 8.730469 C 7.523438 10.59375 10.996094 10.199219 10.996094 11.34375 C 10.996094 11.773438 10.589844 11.929688 9.875 11.929688 C 8.902344 11.929688 8.175781 11.589844 7.800781 11.234375 L 7.613281 12.636719 C 7.964844 12.84375 8.683594 13.03125 9.542969 13.078125 L 9.367188 14.300781 L 10.546875 14.300781 L 10.371094 13.066406 C 12.15625 12.910156 12.476562 11.960938 12.476562 11.335938 C 12.476562 9.117188 8.871094 9.667969 8.871094 8.601562 Z M 8.871094 8.601562 "/>
</g>
</svg>
