<svg width="18" height="19" viewBox="0 0 18 19" fill="none" xmlns="http://www.w3.org/2000/svg">
<path d="M3.27305 5.40781L4.90781 3.77305L3.27305 2.13477L4.90781 0.5H0V5.40781L1.63477 3.77305L3.27305 5.40781ZM3.27305 13.5922L1.63828 15.227L0 13.5922V18.5H4.90781L3.27305 16.8652L4.90781 15.2305L3.27305 13.5922ZM13.0922 5.40781H4.90781V13.5887H13.0887V5.40781H13.0922ZM11.4539 11.9539H6.54609V7.04609H11.4539V11.9539ZM13.0922 0.5L14.727 2.13477L13.0922 3.76953L14.727 5.4043L16.3617 3.76953L17.9965 5.4043V0.5H13.0922ZM14.727 13.5922L13.0922 15.227L14.727 16.8617L13.0922 18.5H18V13.5922L16.3652 15.227L14.727 13.5922Z" fill="white"/>
</svg>
