<svg width="22" height="22" viewBox="0 0 22 22" fill="none" xmlns="http://www.w3.org/2000/svg">
<circle cx="11" cy="11" r="11" fill="#A8AFC2"/>
<path fill-rule="evenodd" clip-rule="evenodd" d="M8.43331 4.58331C8.76237 4.58331 9.03359 4.83102 9.07065 5.15015L9.07497 5.22498V6.50831C10.1002 6.50831 10.9382 7.30971 10.9967 8.32021L11 8.43331V12.2833C11 13.3085 10.1986 14.1465 9.18808 14.205L9.07497 14.2083V16.775C9.07497 17.1294 8.78768 17.4166 8.43331 17.4166C8.10424 17.4166 7.83302 17.1689 7.79596 16.8498L7.79164 16.775V14.2083C6.76646 14.2083 5.92846 13.407 5.86991 12.3964L5.86664 12.2833V8.43331C5.86664 7.40814 6.66803 6.57013 7.67853 6.51158L7.79164 6.50831V5.22498C7.79164 4.8706 8.07893 4.58331 8.43331 4.58331ZM14.2083 4.58331C14.5374 4.58331 14.8086 4.83102 14.8457 5.15015L14.85 5.22498V7.79165C15.8752 7.79165 16.7132 8.59304 16.7717 9.60354L16.775 9.71665V13.5666C16.775 14.5919 15.9736 15.4298 14.9631 15.4884L14.85 15.4916V16.775C14.85 17.1294 14.5627 17.4166 14.2083 17.4166C13.8792 17.4166 13.608 17.1689 13.571 16.8498L13.5666 16.775V15.4916C12.5414 15.4916 11.7035 14.6903 11.6449 13.6798L11.6416 13.5666V9.71665C11.6416 8.69147 12.443 7.85346 13.4535 7.79491L13.5666 7.79165V5.22498C13.5666 4.8706 13.8539 4.58331 14.2083 4.58331ZM14.85 9.07498H13.5666C13.2376 9.07498 12.9664 9.32269 12.9293 9.64182L12.925 9.71665V13.5666C12.925 13.8957 13.1727 14.1669 13.4918 14.204L13.5666 14.2083H14.85C15.1791 14.2083 15.4503 13.9606 15.4873 13.6415L15.4916 13.5666V9.71665C15.4916 9.38758 15.2439 9.11636 14.9248 9.0793L14.85 9.07498ZM9.07497 7.79165H7.79164C7.46257 7.79165 7.19135 8.03936 7.15429 8.35848L7.14997 8.43331V12.2833C7.14997 12.6124 7.39768 12.8836 7.71681 12.9207L7.79164 12.925H9.07497C9.40404 12.925 9.67525 12.6773 9.71232 12.3581L9.71664 12.2833V8.43331C9.71664 8.10425 9.46893 7.83303 9.1498 7.79596L9.07497 7.79165Z" fill="black"/>
</svg>
