<svg width="22" height="22" viewBox="0 0 22 22" fill="none" xmlns="http://www.w3.org/2000/svg">
<path fill-rule="evenodd" clip-rule="evenodd" d="M11 22C4.92456 22 0 17.0754 0 11C0 4.92456 4.92456 0 11 0C17.0754 0 22 4.92456 22 11C22 17.0754 17.0754 22 11 22ZM15.9424 9.63875C16.1583 8.19775 15.0604 7.42294 13.5603 6.90594L14.047 4.95344L12.859 4.65781L12.3846 6.55875C12.0725 6.48037 11.7521 6.4075 11.4324 6.33462L11.9103 4.42131L10.7222 4.125L10.2355 6.07681C9.977 6.01769 9.72263 5.95994 9.4765 5.89806L9.47788 5.89187L7.83888 5.48281L7.52263 6.75194C7.52263 6.75194 8.40469 6.95406 8.38613 6.96644C8.86738 7.08675 8.954 7.40506 8.93956 7.65806L8.38544 9.88212C8.41844 9.89037 8.46106 9.90275 8.50919 9.92131L8.38338 9.89037L7.6065 13.0061C7.54738 13.1519 7.39819 13.3712 7.06131 13.288C7.07369 13.3052 6.19781 13.0728 6.19781 13.0728L5.60794 14.4327L7.15481 14.8184C7.44219 14.8906 7.72406 14.9662 8.00112 15.037L7.50956 17.0115L8.69687 17.3071L9.18362 15.3546C9.50812 15.4419 9.823 15.5231 10.131 15.6001L9.64563 17.5443L10.8336 17.8399L11.3252 15.8696C13.3519 16.2532 14.8754 16.0985 15.5169 14.2656C16.0339 12.7903 15.4914 11.9384 14.4251 11.3836C15.202 11.2049 15.7864 10.6941 15.9424 9.63875ZM13.2268 13.4461C12.8604 14.9222 10.3751 14.124 9.56931 13.9239L10.2224 11.308C11.0282 11.5094 13.6111 11.9075 13.2268 13.4461ZM13.5946 9.61744C13.2598 10.9601 11.1918 10.2774 10.5215 10.1104L11.1127 7.7385C11.7831 7.90556 13.9439 8.217 13.5946 9.61744Z" fill="#A8AFC2"/>
</svg>
