<svg width="8" height="8" viewBox="0 0 8 8" fill="none" xmlns="http://www.w3.org/2000/svg">
<path fill-rule="evenodd" clip-rule="evenodd" d="M5.45396 4.02491L7.59652 6.24421C7.69314 6.3408 7.76955 6.45566 7.82129 6.5821C7.87302 6.70854 7.89905 6.84402 7.89785 6.98063C7.89664 7.11724 7.86823 7.25224 7.81428 7.37775C7.76032 7.50326 7.6819 7.61676 7.58359 7.71162C7.48529 7.80649 7.36906 7.88081 7.24171 7.93026C7.11436 7.97971 6.97843 8.00329 6.84187 7.99963C6.7053 7.99597 6.57084 7.96513 6.44632 7.90892C6.32181 7.85271 6.20974 7.77226 6.11666 7.67226L3.97409 5.45396L1.75579 7.59652C1.6592 7.69314 1.54434 7.76955 1.4179 7.82129C1.29146 7.87302 1.15598 7.89905 1.01937 7.89785C0.882761 7.89664 0.74776 7.86823 0.622252 7.81428C0.496744 7.76032 0.383244 7.6819 0.288379 7.58359C0.193515 7.48529 0.119187 7.36906 0.0697374 7.24171C0.0202874 7.11436 -0.00329419 6.97843 0.00037001 6.84187C0.00403421 6.7053 0.0348707 6.57084 0.0910786 6.44632C0.147286 6.32181 0.227739 6.20974 0.327739 6.11666L2.54604 3.97409L0.403476 1.75579C0.306856 1.6592 0.230448 1.54434 0.178712 1.4179C0.126976 1.29146 0.10095 1.15598 0.102154 1.01937C0.103358 0.882761 0.131767 0.74776 0.185723 0.622252C0.239679 0.496744 0.318101 0.383244 0.416408 0.288379C0.514714 0.193515 0.630937 0.119187 0.758288 0.0697374C0.885639 0.0202874 1.02157 -0.00329419 1.15813 0.00037001C1.2947 0.00403421 1.42916 0.0348707 1.55368 0.0910786C1.67819 0.147286 1.79026 0.227739 1.88334 0.327739L4.02591 2.54604L6.24421 0.403476C6.3408 0.306856 6.45566 0.230448 6.5821 0.178712C6.70854 0.126976 6.84402 0.10095 6.98063 0.102154C7.11724 0.103358 7.25224 0.131767 7.37775 0.185723C7.50326 0.239679 7.61676 0.318101 7.71162 0.416408C7.80649 0.514714 7.88081 0.630937 7.93026 0.758288C7.97971 0.885639 8.00329 1.02157 7.99963 1.15813C7.99597 1.2947 7.96513 1.42916 7.90892 1.55368C7.85271 1.67819 7.77226 1.79026 7.67226 1.88334L5.45396 4.02591V4.02491Z" fill="#EAEAEA"/>
</svg>
