<svg width="19" height="16" viewBox="0 0 19 16" fill="none" xmlns="http://www.w3.org/2000/svg">
<path fill-rule="evenodd" clip-rule="evenodd" d="M15.5145 12.8439C17.7852 10.0401 17.7428 5.49024 15.3426 2.74934L16.7105 1.48927C19.7079 4.91441 19.7527 10.6042 16.9006 14.0957L15.5145 12.8439ZM14.2495 11.7016L12.9148 10.4963C14.0969 8.98312 14.0584 6.56963 12.7775 5.11218L14.0945 3.89904C15.9505 6.0154 15.9907 9.52576 14.2495 11.7016ZM5.01673 3.86448L10.7136 0L10.8269 15.8198L4.88102 11.7971L5.01673 3.86448ZM0.0282808 10.2076C0.0282808 9.53833 0 6.65722 0 5.26615C0 4.06735 0.601953 3.67397 1.56468 3.67397C2.45887 3.67397 3.33951 3.76314 3.33951 3.76314L3.39568 11.9746C3.39568 11.9746 2.2666 12.1084 1.60946 12.1084C0.518484 12.1082 0.0282808 11.5284 0.0282808 10.2076Z" fill="white"/>
</svg>
