<?xml version="1.0" encoding="UTF-8"?>
<svg xmlns="http://www.w3.org/2000/svg" xmlns:xlink="http://www.w3.org/1999/xlink" width="16pt" height="16pt" viewBox="0 0 16 16" version="1.1">
<g id="surface1">
<path style=" stroke:none;fill-rule:nonzero;fill:rgb(0%,0%,0%);fill-opacity:1;" d="M 3.527344 10.558594 L 6.078125 10.558594 C 6.292969 10.558594 6.464844 10.730469 6.464844 10.945312 L 6.464844 15.40625 C 6.464844 15.621094 6.292969 15.792969 6.078125 15.792969 L 3.527344 15.792969 C 3.3125 15.792969 3.136719 15.621094 3.136719 15.40625 L 3.136719 10.945312 C 3.136719 10.730469 3.3125 10.558594 3.527344 10.558594 Z M 4.171875 0.589844 C 4.171875 0.078125 4.953125 0.078125 4.953125 0.589844 L 4.953125 1.042969 L 6.261719 1.042969 C 6.773438 1.042969 6.773438 1.820312 6.261719 1.820312 L 4.953125 1.820312 L 4.953125 3.597656 L 5.417969 3.597656 C 6.335938 3.597656 7.085938 4.347656 7.085938 5.265625 C 7.085938 6.183594 6.335938 6.933594 5.417969 6.933594 L 4.953125 6.933594 L 4.953125 7.386719 C 4.953125 7.898438 4.171875 7.898438 4.171875 7.386719 L 4.171875 6.933594 L 2.863281 6.933594 C 2.351562 6.933594 2.351562 6.152344 2.863281 6.152344 L 4.171875 6.152344 L 4.171875 4.378906 L 3.707031 4.378906 C 2.789062 4.378906 2.039062 3.628906 2.039062 2.710938 C 2.039062 1.792969 2.789062 1.042969 3.707031 1.042969 L 4.171875 1.042969 Z M 4.953125 4.378906 L 4.953125 6.152344 L 5.417969 6.152344 C 5.90625 6.152344 6.308594 5.753906 6.308594 5.265625 C 6.308594 4.777344 5.90625 4.378906 5.417969 4.378906 Z M 4.171875 3.597656 L 4.171875 1.820312 L 3.707031 1.820312 C 3.21875 1.820312 2.816406 2.222656 2.816406 2.710938 C 2.816406 3.195312 3.21875 3.597656 3.707031 3.597656 Z M 11.023438 3.390625 L 13.570312 3.390625 C 13.785156 3.390625 13.960938 3.566406 13.960938 3.78125 L 13.960938 15.40625 C 13.960938 15.621094 13.785156 15.792969 13.570312 15.792969 L 11.023438 15.792969 C 10.808594 15.792969 10.632812 15.621094 10.632812 15.40625 L 10.632812 3.78125 C 10.632812 3.566406 10.808594 3.390625 11.023438 3.390625 Z M 13.183594 4.167969 L 11.414062 4.167969 L 11.414062 15.015625 L 13.183594 15.015625 Z M 7.273438 7.191406 L 9.824219 7.191406 C 10.039062 7.191406 10.214844 7.367188 10.214844 7.582031 L 10.214844 15.40625 C 10.214844 15.621094 10.039062 15.792969 9.824219 15.792969 L 7.273438 15.792969 C 7.058594 15.792969 6.886719 15.621094 6.886719 15.40625 L 6.886719 7.582031 C 6.886719 7.367188 7.058594 7.191406 7.273438 7.191406 Z M 9.433594 7.972656 L 7.664062 7.972656 L 7.664062 15.015625 L 9.433594 15.015625 Z M 5.6875 11.335938 L 3.917969 11.335938 L 3.917969 15.015625 L 5.6875 15.015625 Z M 5.6875 11.335938 "/>
</g>
</svg>
