<svg width="28" height="28" viewBox="0 0 28 28" fill="none" xmlns="http://www.w3.org/2000/svg">
<path d="M6.70837 8.16669C6.22513 8.16669 5.83337 8.55844 5.83337 9.04169C5.83337 9.52493 6.22513 9.91669 6.70837 9.91669H11.375C11.8583 9.91669 12.25 9.52493 12.25 9.04169C12.25 8.55844 11.8583 8.16669 11.375 8.16669H6.70837Z" fill="white"/>
<path fill-rule="evenodd" clip-rule="evenodd" d="M24.7198 9.33771C24.6473 9.33326 24.5682 9.33329 24.4862 9.33332L24.4657 9.33333H21.2508C18.6008 9.33333 16.3334 11.3587 16.3334 14C16.3334 16.6412 18.6008 18.6666 21.2508 18.6666H24.4657H24.4862C24.5682 18.6666 24.6473 18.6666 24.7198 18.6622C25.7962 18.5963 26.7482 17.7783 26.8282 16.6359C26.8335 16.561 26.8334 16.4803 26.8334 16.4055V16.3851V11.6148V11.5945C26.8334 11.5197 26.8335 11.4389 26.8282 11.364C26.7482 10.2216 25.7962 9.40371 24.7198 9.33771ZM20.9657 15.2445C21.648 15.2445 22.201 14.6873 22.201 14C22.201 13.3127 21.648 12.7555 20.9657 12.7555C20.2835 12.7555 19.7305 13.3127 19.7305 14C19.7305 14.6873 20.2835 15.2445 20.9657 15.2445Z" fill="white"/>
<path opacity="0.5" d="M24.6627 9.33511C24.6627 7.95773 24.6126 6.48022 23.7321 5.42101C23.6471 5.31876 23.5567 5.21948 23.4603 5.12311C22.5872 4.25003 21.48 3.86255 20.1122 3.67866C18.7831 3.49997 17.0849 3.49999 14.9408 3.5H12.4759C10.3318 3.49999 8.6336 3.49997 7.30452 3.67866C5.93669 3.86255 4.82959 4.25003 3.95649 5.12311C3.0834 5.99621 2.69593 7.10332 2.51204 8.47114C2.33334 9.80022 2.33336 11.4984 2.33337 13.6425V13.7741C2.33336 15.9182 2.33334 17.6164 2.51204 18.9455C2.69593 20.3133 3.0834 21.4205 3.95649 22.2936C4.82959 23.1666 5.93669 23.5541 7.30452 23.7381C8.63358 23.9167 10.3318 23.9167 12.4758 23.9167H14.9408C17.0849 23.9167 18.7831 23.9167 20.1122 23.7381C21.48 23.5541 22.5872 23.1666 23.4603 22.2936C23.6989 22.0549 23.9015 21.7985 24.0737 21.5234C24.5993 20.684 24.6627 19.6552 24.6627 18.6649C24.6064 18.6667 24.5472 18.6667 24.4863 18.6667H21.2508C18.6008 18.6667 16.3334 16.6412 16.3334 14C16.3334 11.3587 18.6008 9.33334 21.2508 9.33334H24.4862C24.5471 9.33332 24.6064 9.3333 24.6627 9.33511Z" fill="white"/>
</svg>
