<svg width="22" height="14" viewBox="0 0 22 14" fill="none" xmlns="http://www.w3.org/2000/svg">
<path d="M21 12.6643L13.4556 4.74424C13.3523 4.63491 13.2294 4.54814 13.094 4.48892C12.9586 4.4297 12.8133 4.39921 12.6667 4.39921C12.52 4.39921 12.3748 4.4297 12.2394 4.48892C12.104 4.54814 11.9811 4.63491 11.8778 4.74424L9.01111 7.75363C8.90782 7.86296 8.78493 7.94973 8.64953 8.00895C8.51413 8.06817 8.3689 8.09866 8.22222 8.09866C8.07554 8.09866 7.93031 8.06817 7.79491 8.00895C7.65952 7.94973 7.53663 7.86296 7.43333 7.75363L1 0.999995" stroke="white" stroke-width="2" stroke-linecap="round" stroke-linejoin="round"/>
<path d="M21.0001 7.99858V12.6643H16.5557" stroke="white" stroke-width="2" stroke-linecap="round" stroke-linejoin="round"/>
</svg>
