<svg width="24" height="24" viewBox="0 0 24 24" fill="none" xmlns="http://www.w3.org/2000/svg">
<circle cx="12" cy="12" r="12" fill="#50577A"/>
<path d="M8.15294 8.15292L8.15292 8.15294C7.99097 8.31493 7.9 8.53461 7.9 8.76367C7.9 8.99273 7.99097 9.21241 8.15292 9.3744L8.15293 9.37441L10.7831 12.0046L8.15293 14.6348L8.15292 14.6348L8.15171 14.6361C7.99436 14.799 7.90729 15.0172 7.90926 15.2437C7.91122 15.4702 8.00207 15.6868 8.16223 15.847C8.3224 16.0072 8.53906 16.098 8.76555 16.1C8.99204 16.1019 9.21025 16.0149 9.37317 15.8575L9.37318 15.8575L9.37441 15.8563L12.0046 13.2261L14.6348 15.8563L14.6348 15.8563L14.6361 15.8575C14.799 16.0149 15.0172 16.1019 15.2437 16.1C15.4702 16.098 15.6868 16.0072 15.847 15.847C16.0072 15.6868 16.098 15.4702 16.1 15.2437C16.1019 15.0172 16.0149 14.799 15.8575 14.6361L15.8575 14.636L15.8563 14.6348L13.2261 12.0046L15.8563 9.37441L15.8563 9.37442L15.8575 9.37317C16.0149 9.21025 16.1019 8.99204 16.1 8.76555C16.098 8.53906 16.0072 8.3224 15.847 8.16223C15.6868 8.00207 15.4702 7.91122 15.2437 7.90926C15.0172 7.90729 14.799 7.99436 14.6361 8.15171L14.636 8.1517L14.6348 8.15293L12.0046 10.7831L9.37441 8.15293L9.3744 8.15292C9.21241 7.99097 8.99273 7.9 8.76367 7.9C8.53461 7.9 8.31493 7.99097 8.15294 8.15292Z" fill="#EFEFEF" stroke="white" stroke-width="0.2"/>
</svg>
