<svg width="22" height="21" viewBox="0 0 22 21" fill="none" xmlns="http://www.w3.org/2000/svg">
<path fill-rule="evenodd" clip-rule="evenodd" d="M14.3105 0C15.875 0 17.3206 0.83464 18.1028 2.18952L21.4133 7.92344C22.1956 9.27832 22.1956 10.9476 21.4133 12.3025L18.1028 18.0364C17.3206 19.3913 15.875 20.2259 14.3105 20.2259H7.68952C6.12504 20.2259 4.6794 19.3913 3.89716 18.0364L0.58668 12.3025C-0.19556 10.9476 -0.19556 9.27832 0.58668 7.92344L3.89716 2.18952C4.6794 0.83464 6.12504 0 7.68952 0H14.3105ZM11 5.73392C8.58152 5.73392 6.62096 7.69448 6.62096 10.113C6.62096 12.5314 8.58152 14.492 11 14.492C13.4185 14.492 15.379 12.5314 15.379 10.113C15.379 7.69448 13.4185 5.73392 11 5.73392ZM11 7.1936C12.6123 7.1936 13.9194 8.50064 13.9194 10.113C13.9194 11.7253 12.6123 13.0323 11 13.0323C9.38768 13.0323 8.08064 11.7253 8.08064 10.113C8.08064 8.50064 9.38768 7.1936 11 7.1936Z" fill="white"/>
</svg>
