<svg width="28" height="28" viewBox="0 0 28 28" fill="none" xmlns="http://www.w3.org/2000/svg">
<circle cx="14" cy="14" r="14" fill="#50577A"/>
<path d="M9.09473 15.2331L9.09483 15.233L13.6733 11.208C14.1403 10.7973 14.8933 10.7973 15.3603 11.208L19.9053 15.2041C20.165 15.4324 20.1648 15.8088 19.9054 16.0375C19.6532 16.2598 19.2482 16.2598 18.996 16.0376L9.09473 15.2331ZM9.09473 15.2331C8.83811 15.4593 8.8343 15.831 9.0882 16.0608M9.09473 15.2331L18.9959 16.0375L14.8396 12.3831C14.6625 12.2274 14.3711 12.2274 14.194 12.3831C14.194 12.3831 14.194 12.3831 14.194 12.3831L10.0046 16.067L10.0045 16.0671C9.74948 16.2908 9.33991 16.2889 9.0882 16.0608M9.0882 16.0608L9.15536 15.9867M9.0882 16.0608C9.08822 16.0608 9.08825 16.0608 9.08827 16.0608L9.15536 15.9867M9.15536 15.9867C8.94594 15.7972 8.94869 15.4951 9.16085 15.3081L13.7393 11.2831L14.1279 12.308L9.93859 15.9919C9.72148 16.1823 9.36917 16.1805 9.15536 15.9867Z" fill="white" stroke="white" stroke-width="0.2"/>
</svg>
