<svg width="22" height="14" viewBox="0 0 22 14" fill="none" xmlns="http://www.w3.org/2000/svg">
<path d="M21 1L13.4556 8.92007C13.3523 9.0294 13.2294 9.11617 13.094 9.17539C12.9586 9.23461 12.8133 9.2651 12.6667 9.2651C12.52 9.2651 12.3748 9.23461 12.2394 9.17539C12.104 9.11617 11.9811 9.0294 11.8778 8.92007L9.01111 5.91068C8.90782 5.80135 8.78493 5.71457 8.64953 5.65535C8.51413 5.59614 8.3689 5.56565 8.22222 5.56565C8.07554 5.56565 7.93031 5.59614 7.79491 5.65535C7.65952 5.71457 7.53663 5.80135 7.43333 5.91068L1 12.6643" stroke="white" stroke-width="2" stroke-linecap="round" stroke-linejoin="round"/>
<path d="M21.0001 5.66572V1H16.5557" stroke="white" stroke-width="2" stroke-linecap="round" stroke-linejoin="round"/>
</svg>
