<svg width="156" height="64" viewBox="0 0 156 64" fill="none" xmlns="http://www.w3.org/2000/svg">
<rect width="156" height="51" rx="8" fill="#4F5877"/>
<path d="M6 13C6 8.58172 9.58172 5 14 5H143C147.418 5 151 8.58172 151 13V37C151 41.4183 147.418 45 143 45H14C9.58173 45 6 41.4183 6 37V13Z" fill="#D23131"/>
<path d="M74.3252 61.4338C75.1143 62.643 76.8857 62.643 77.6749 61.4338L85.2396 49.8431C86.1078 48.5128 85.1533 46.75 83.5647 46.75H68.4353C66.8467 46.75 65.8922 48.5128 66.7604 49.8431L74.3252 61.4338Z" fill="#4F5877"/>
</svg>
