<svg width="80" height="82" viewBox="0 0 80 82" fill="none" xmlns="http://www.w3.org/2000/svg">
<path fill-rule="evenodd" clip-rule="evenodd" d="M27.8456 3.19787C28.0473 2.29094 28.5521 1.47985 29.2767 0.898465C30.0014 0.317083 30.9027 0.000159435 31.8317 0H48.1682C49.0973 0.000159435 49.9986 0.317083 50.7233 0.898465C51.4479 1.47985 51.9527 2.29094 52.1544 3.19787L53.9514 11.2885C55.585 12.0645 57.1411 12.963 58.6073 13.984L66.5223 11.4927C67.4086 11.2141 68.3634 11.2459 69.2292 11.583C70.0949 11.9201 70.8199 12.5423 71.2844 13.3469L79.4526 27.4943C79.9173 28.2991 80.0937 29.2382 79.9526 30.1568C79.8116 31.0753 79.3615 31.9182 78.6766 32.5464L72.5627 38.1539C72.7085 39.9425 72.7085 41.74 72.5627 43.5286L78.6766 49.1361C79.3615 49.7643 79.8116 50.6072 79.9526 51.5257C80.0937 52.4442 79.9173 53.3834 79.4526 54.1882L71.2844 68.3356C70.8199 69.1402 70.0949 69.7624 69.2292 70.0995C68.3634 70.4366 67.4086 70.4684 66.5223 70.1898L58.6113 67.6984C57.1411 68.7195 55.585 69.618 53.9554 70.394L52.1584 78.4805C51.9575 79.3889 51.4524 80.2014 50.7268 80.7837C50.0012 81.366 49.0986 81.683 48.1682 81.6825H31.8317C30.9027 81.6823 30.0014 81.3654 29.2767 80.784C28.5521 80.2026 28.0473 79.3915 27.8456 78.4846L26.0486 70.394C24.415 69.618 22.8589 68.7195 21.3927 67.6984L13.4777 70.1898C12.5914 70.4684 11.6366 70.4366 10.7708 70.0995C9.90506 69.7624 9.18011 69.1402 8.71561 68.3356L0.547363 54.1882C0.0826456 53.3834 -0.093734 52.4442 0.0473477 51.5257C0.188429 50.6072 0.638536 49.7643 1.32335 49.1361L7.43728 43.5286C7.29145 41.74 7.29145 39.9425 7.43728 38.1539L1.32335 32.5505C0.638536 31.9223 0.188429 31.0793 0.0473477 30.1608C-0.093734 29.2423 0.0826456 28.3032 0.547363 27.4984L8.71561 13.351C9.18011 12.5464 9.90506 11.9242 10.7708 11.5871C11.6366 11.25 12.5914 11.2181 13.4777 11.4968L21.3886 13.9881C22.8589 12.9671 24.415 12.0686 26.0445 11.2926L27.8416 3.20604L27.8456 3.19787ZM55.1398 35.5605C55.8838 34.7902 56.2955 33.7585 56.2862 32.6877C56.2768 31.6168 55.8473 30.5925 55.0901 29.8353C54.3329 29.078 53.3085 28.6485 52.2377 28.6392C51.1668 28.6299 50.1352 29.0416 49.3649 29.7855L35.9159 43.2345L30.6351 37.9538C29.8648 37.2098 28.8332 36.7982 27.7623 36.8075C26.6915 36.8168 25.6671 37.2463 24.9099 38.0035C24.1527 38.7607 23.7232 39.7851 23.7138 40.8559C23.7045 41.9268 24.1162 42.9584 24.8602 43.7287L33.0284 51.897C33.7943 52.6626 34.8329 53.0927 35.9159 53.0927C36.9988 53.0927 38.0375 52.6626 38.8033 51.897L55.1398 35.5605Z" fill="#7F8397"/>
</svg>
