<svg width="16" height="16" viewBox="0 0 16 16" fill="none" xmlns="http://www.w3.org/2000/svg">
<g clip-path="url(#clip0_1_203)">
<path d="M3.46667 0C1.56459 0 0 1.56459 0 3.46667V12.5333C0 14.4354 1.56459 16 3.46667 16H8.04208C9.80889 16 11.2836 14.6498 11.4846 12.9333H9.31828C9.15525 13.4843 8.65876 13.8667 8.04208 13.8667H3.46667C2.70955 13.8667 2.13333 13.2904 2.13333 12.5333V3.46667C2.13333 2.70955 2.70955 2.13333 3.46667 2.13333H8.04208C8.65876 2.13333 9.15525 2.51573 9.31828 3.06667H11.4846C11.2836 1.35021 9.80889 0 8.04208 0H3.46667Z" fill="#318ED2"/>
<path d="M12.7164 4.80005C12.5763 4.80004 12.4376 4.82763 12.3082 4.88123C12.1787 4.93483 12.0611 5.0134 11.9621 5.11244C11.863 5.21149 11.7845 5.32909 11.7308 5.4585C11.6772 5.58792 11.6496 5.72663 11.6496 5.86672C11.6496 6.0068 11.6772 6.14551 11.7308 6.27493C11.7845 6.40434 11.863 6.52194 11.9621 6.62099L12.2745 6.93338H4.36604C4.08315 6.93338 3.81184 7.04576 3.6118 7.2458C3.41176 7.44584 3.29938 7.71715 3.29938 8.00005C3.29938 8.28295 3.41176 8.55426 3.6118 8.7543C3.81184 8.95433 4.08315 9.06672 4.36604 9.06672H12.2745L11.9621 9.37911C11.863 9.47816 11.7845 9.59575 11.7308 9.72517C11.6772 9.85459 11.6496 9.9933 11.6496 10.1334C11.6496 10.2735 11.6772 10.4122 11.7308 10.5416C11.7845 10.671 11.863 10.7886 11.9621 10.8877C12.0611 10.9867 12.1787 11.0653 12.3081 11.1189C12.4376 11.1725 12.5763 11.2001 12.7164 11.2001C12.8564 11.2001 12.9951 11.1725 13.1246 11.1189C13.254 11.0653 13.3716 10.9867 13.4706 10.8877L15.4117 8.94656C15.5875 8.85836 15.7355 8.72328 15.8393 8.55624C15.9431 8.3892 15.9987 8.19672 16 8.00005C15.9998 7.80037 15.9435 7.60477 15.8375 7.4355C15.7316 7.26624 15.5803 7.13011 15.4008 7.0426L13.4706 5.11244C13.3716 5.0134 13.254 4.93483 13.1246 4.88123C12.9951 4.82763 12.8564 4.80004 12.7164 4.80005Z" fill="#318ED2"/>
</g>
<defs>
<clipPath id="clip0_1_203">
<rect width="16" height="16" fill="white"/>
</clipPath>
</defs>
</svg>
