<svg width="17" height="28" viewBox="0 0 17 28" fill="none" xmlns="http://www.w3.org/2000/svg">
<path d="M11.9 28H4.43333C1.98333 28 0 26.0167 0 23.5667V4.43333C0 1.98333 1.98333 0 4.43333 0H11.7833C14.35 0 16.3333 1.98333 16.3333 4.43333V23.45C16.3333 26.0167 14.35 28 11.9 28ZM4.43333 2.33333C3.26667 2.33333 2.33333 3.26667 2.33333 4.43333V23.45C2.33333 24.6167 3.26667 25.55 4.43333 25.55H11.7833C12.95 25.55 13.8833 24.6167 13.8833 23.45V4.43333C13.8833 3.26667 12.95 2.33333 11.7833 2.33333H4.43333Z" fill="white"/>
<path d="M15.1667 21H1.16666V23.3333H15.1667V21Z" fill="white"/>
<path d="M15.1667 4.66675H1.16666V7.00008H15.1667V4.66675Z" fill="white"/>
</svg>
