<svg width="28" height="24" viewBox="0 0 28 24" fill="none" xmlns="http://www.w3.org/2000/svg">
<path d="M27.0667 3.39912H24.2667C23.66 3.39912 23.0533 3.10777 22.5867 2.67074L20.3467 0.679824C19.88 0.291353 19.2733 0 18.6667 0H13.2067C12.5067 0 11.8533 0.291353 11.34 0.8255L8.44667 3.302C8.21333 3.49624 8.21333 3.88471 8.4 4.1275L9.28667 5.00156C9.89333 5.48715 10.6867 5.58427 11.2933 5.14724L13.86 3.5448C14.1867 3.302 14.6533 3.39912 14.9333 3.69047L23.0067 11.8484C23.1933 12.0426 23.3333 12.334 23.3333 12.6253V14.8105C23.3333 15.3932 23.7533 16.0244 24.2667 16.0244H27.0667C27.58 16.0244 28 15.5874 28 15.0047V4.3703C28 3.78759 27.58 3.39912 27.0667 3.39912ZM19.1333 12.1397L14.0933 7.04103L12.6933 7.91509C11.9933 8.35212 11.2 8.59492 10.4067 8.59492C9.42667 8.59492 8.4 8.20645 7.60667 7.52662L5.78667 5.97274C5.36667 5.63283 5.13333 5.24436 5.08667 4.71021C4.99333 4.17606 4.62 3.88471 4.15333 3.88471H0.933333C0.42 3.88471 0 4.17606 0 4.75877V13.5965C0 14.1792 0.42 14.5677 0.933333 14.5677H2.8C2.94 14.5677 3.12667 14.0335 3.31333 13.7907C4.01333 12.8195 5.04 12.2854 6.16 12.1397C7.28 12.0426 8.35333 12.4311 9.24 13.2566L15.0733 18.7923C15.5867 19.2779 15.96 19.812 16.1933 20.4918C16.3333 20.8318 16.7067 20.9289 16.94 20.6861L19.1333 18.4038C20.2533 17.2384 21.0933 14.5191 20.0667 13.2566L19.1333 12.1397ZM7.42 15.7331C6.81333 15.1504 5.92667 15.2475 5.46 15.9273C4.94667 16.6071 5.04 17.5783 5.64667 18.161L11.48 23.6482C11.76 23.9395 12.1333 24.0366 12.5067 23.9881C12.88 23.9395 13.2067 23.7453 13.44 23.4054C13.9533 22.7255 13.86 21.7544 13.2533 21.1717L7.42 15.7331Z" fill="white"/>
</svg>
