<svg width="28" height="23" viewBox="0 0 28 23" fill="none" xmlns="http://www.w3.org/2000/svg">
<path d="M0.5 5.6C0.5 2.78335 2.78335 0.5 5.6 0.5H22.4C25.2166 0.5 27.5 2.78335 27.5 5.6V6.3C27.5 6.41043 27.4104 6.5 27.3 6.5H0.7C0.589547 6.5 0.5 6.41045 0.5 6.3V5.6ZM0.5 10.5C0.5 10.3896 0.589572 10.3 0.7 10.3H27.3C27.4104 10.3 27.5 10.3896 27.5 10.5V16.8C27.5 19.6166 25.2166 21.9 22.4 21.9H5.6C2.78335 21.9 0.5 19.6166 0.5 16.8V10.5ZM16.8 13.5C15.7506 13.5 14.9 14.3506 14.9 15.4C14.9 16.4494 15.7506 17.3 16.8 17.3H21C22.0494 17.3 22.9 16.4494 22.9 15.4C22.9 14.3506 22.0494 13.5 21 13.5H16.8Z" fill="#CFCFCF" stroke="black"/>
</svg>
