<svg width="80" height="84" viewBox="0 0 80 84" fill="none" xmlns="http://www.w3.org/2000/svg">
<path d="M44.3782 68.4173C44.2468 67.927 43.7692 67.6135 43.2671 67.6885C25.9013 70.2842 9.99997 56.7612 9.99997 39C9.99997 23.0094 23.0094 9.99997 39 9.99997C58.5493 9.99997 72.6183 29.1059 66.624 47.8177C66.4492 48.3631 66.7615 48.9439 67.3148 49.0921L73.8914 50.8541C74.23 50.9449 74.5583 51.0609 74.8742 51.1998C75.4216 51.4401 76.0592 51.1599 76.237 50.5891C84.0853 25.3761 65.0923 0 39 0C17.4953 0 0 17.4955 0 39C0 63.789 22.5729 81.5537 45.673 77.4521C46.251 77.3495 46.6178 76.7735 46.466 76.2065L44.3782 68.4173Z" fill="#7F8397"/>
<path d="M39.1328 28.543C41.5202 28.543 42.7542 30.1786 42.7288 31.7678C42.7017 33.4606 44.0773 34.8387 45.7688 34.8164C47.4754 34.794 48.7656 33.3038 48.7258 31.5976C48.6294 27.4628 45.8122 23.9909 41.9998 22.901V21.5738C41.9998 19.9584 40.7584 18.5686 39.1448 18.4927C37.422 18.4115 35.9999 19.7843 35.9999 21.4892V23.0617C32.0159 24.3995 29.1899 28.1165 29.273 32.4605C29.3737 37.721 33.7371 42.0006 38.9998 42.0006C40.4954 42.0006 41.8012 42.9022 42.392 44.1897C42.624 44.6951 43.2438 44.894 43.7387 44.6403C44.8151 44.0887 46.0142 43.8328 47.2038 43.8823C47.915 43.9118 48.4167 43.1943 48.1795 42.5231C46.8459 38.7509 43.2346 36.0208 39.0462 36.0005C37.3864 35.9924 35.887 34.9002 35.4205 33.3073C34.6961 30.8317 36.7048 28.543 39.1328 28.543Z" fill="#7F8397"/>
<path d="M41.2839 58.452C41.4902 58.209 41.5525 57.8746 41.4702 57.5667C40.0816 52.3855 39.8586 51.9454 39.9381 50.5087C39.9674 49.9756 39.571 49.4573 38.8672 49.4573C36.4798 49.4573 35.2458 47.8216 35.2712 46.2325C35.2983 44.5397 33.9227 43.1616 32.2312 43.1839C30.5246 43.2065 29.2344 44.6965 29.2742 46.4027C29.3706 50.5377 32.1878 54.0094 36.0002 55.0993V56.4284C36.0001 59.293 39.4757 60.5823 41.2839 58.452Z" fill="#7F8397"/>
<path d="M79.1214 71.5387L70.7623 63.1775L74.2017 59.7369C75.831 58.1066 75.0853 55.3152 72.8561 54.7182L47.7005 47.9782C45.4742 47.382 43.4288 49.4233 44.0263 51.6526C44.0803 51.8541 50.5749 76.0854 50.6558 76.3871C51.4694 79.4289 54.3282 79.6127 55.7873 78.1531L59.2269 74.7135L67.5867 83.0731C68.7582 84.2448 70.6578 84.2445 71.8292 83.0731L79.1212 75.7811C80.2928 74.6097 80.2931 72.7106 79.1214 71.5387Z" fill="#7F8397"/>
</svg>
