<svg width="80" height="80" viewBox="0 0 80 80" fill="none" xmlns="http://www.w3.org/2000/svg">
<path d="M64.8136 19.2667H70.0577C69.3251 18.2255 68.5539 17.2615 67.7441 16.2975L64.8136 19.2667Z" fill="#7F8397"/>
<path d="M63.7008 12.2096C62.7368 11.3998 61.7728 10.6286 60.7317 9.896V15.1401L63.7008 12.2096Z" fill="#7F8397"/>
<path d="M67.7862 16.3012L79.1613 4.92601C80.2796 3.80778 80.2796 1.95691 79.1613 0.838676C78.0431 -0.279559 76.1922 -0.279559 75.074 0.838676L63.6989 12.2138C65.1641 13.4863 66.5137 14.8744 67.7862 16.3012Z" fill="#7F8397"/>
<path d="M60.7382 6.73293C60.7382 5.15198 59.4272 3.84094 57.8462 3.84094C56.3038 3.84094 55.0699 5.07486 54.9928 6.57869C56.9979 7.54268 58.9259 8.62236 60.7382 9.89483V6.73293Z" fill="#7F8397"/>
<path d="M76.163 22.1568C76.163 20.5759 74.852 19.2648 73.271 19.2648H70.0706C71.343 21.0771 72.4613 23.0051 73.3867 25.0102C74.9291 24.9331 76.163 23.6992 76.163 22.1568Z" fill="#7F8397"/>
<path d="M41.4518 52.0438H42.6086C44.1124 52.0438 45.3078 50.6942 45.3078 49.0361C45.3078 46.9539 44.7294 46.6454 43.4183 46.1827L41.4518 45.4886V52.0438Z" fill="#7F8397"/>
<path d="M73.4179 25.0102C73.3793 25.0102 73.3407 25.0488 73.2636 25.0488H57.8397C57.4541 25.0488 57.1071 24.9717 56.7215 24.8174C56.0274 24.5089 55.449 23.9691 55.1405 23.2365C55.0248 22.8894 54.9477 22.5424 54.9477 22.1568V6.73287C54.9477 6.69431 54.9863 6.65575 54.9863 6.57863C49.9735 4.22648 44.4209 2.87689 38.5598 2.87689C17.2748 2.87689 0 20.1517 0 41.4367C0 62.7217 17.2748 79.9965 38.5598 79.9965C59.8448 79.9965 77.1196 62.7217 77.1196 41.4367C77.1196 35.5756 75.77 30.023 73.4179 25.0102ZM45.3078 40.7426C47.7756 41.5909 51.0917 43.4032 51.0917 49.0715C51.0917 53.8915 47.2743 57.8632 42.6086 57.8632H41.4518V58.8272C41.4518 60.4081 40.1407 61.7191 38.5598 61.7191C36.9788 61.7191 35.6678 60.4081 35.6678 58.8272V57.8632H35.3593C30.2309 57.8632 26.0279 53.5445 26.0279 48.2232C26.0279 46.6037 27.3389 45.2927 28.9198 45.2927C30.5008 45.2927 31.8118 46.6037 31.8118 48.1847C31.8118 50.3054 33.3928 52.0406 35.3593 52.0406H35.6678V43.4804L31.8118 42.1308C29.344 41.2824 26.0279 39.4701 26.0279 33.8018C26.0279 28.9819 29.8453 25.0102 34.511 25.0102H35.6678V24.0848C35.6678 22.5038 36.9788 21.1928 38.5598 21.1928C40.1407 21.1928 41.4518 22.5038 41.4518 24.0848V25.0488H41.7603C46.8887 25.0488 51.0917 29.3675 51.0917 34.6887C51.0917 36.2697 49.7807 37.5807 48.1997 37.5807C46.6188 37.5807 45.3078 36.2697 45.3078 34.6887C45.3078 32.5679 43.7268 30.8327 41.7603 30.8327H41.4518V39.393L45.3078 40.7426Z" fill="#7F8397"/>
<path d="M31.8119 33.8404C31.8119 35.9227 32.3903 36.2311 33.7013 36.6939L35.6679 37.3879V30.8328H34.5111C33.0458 30.8328 31.8119 32.1824 31.8119 33.8404Z" fill="#7F8397"/>
</svg>
