<svg width="24" height="27" viewBox="0 0 24 27" fill="none" xmlns="http://www.w3.org/2000/svg">
<path d="M21.0818 4.47219L14.3163 0.559432C13.0207 -0.186477 10.9924 -0.186477 9.69685 0.559432L2.86586 4.49836C0.157034 6.33042 0 6.60523 0 9.52344V16.6292C0 19.5474 0.157034 19.8353 2.91821 21.6935L9.68377 25.6063C10.3381 25.9858 11.1756 26.169 12 26.169C12.8244 26.169 13.662 25.9858 14.3032 25.6063L21.1341 21.6674C23.843 19.8353 24 19.5605 24 16.6423V9.52344C24 6.60523 23.843 6.33042 21.0818 4.47219ZM12 17.3358C9.6576 17.3358 7.74699 15.4253 7.74699 13.0829C7.74699 10.7404 9.6576 8.82987 12 8.82987C14.3424 8.82987 16.253 10.7404 16.253 13.0829C16.253 15.4253 14.3424 17.3358 12 17.3358Z" fill="#232530"/>
</svg>
