<svg width="24" height="24" viewBox="0 0 24 24" fill="none" xmlns="http://www.w3.org/2000/svg">
<g filter="url(#filter0_d_102_3)">
<path d="M12 0C7.581 0 4 3.582 4 8C4 12.418 7.581 16 12 16C16.419 16 20 12.418 20 8C20 3.582 16.419 0 12 0ZM15.707 10.293C16.098 10.684 16.098 11.316 15.707 11.707C15.512 11.902 15.256 12 15 12C14.744 12 14.488 11.902 14.293 11.707L12 9.414L9.707 11.707C9.512 11.902 9.256 12 9 12C8.744 12 8.488 11.902 8.293 11.707C7.902 11.316 7.902 10.684 8.293 10.293L10.586 8L8.293 5.707C7.902 5.316 7.902 4.684 8.293 4.293C8.684 3.902 9.316 3.902 9.707 4.293L12 6.586L14.293 4.293C14.684 3.902 15.316 3.902 15.707 4.293C16.098 4.684 16.098 5.316 15.707 5.707L13.414 8L15.707 10.293Z" fill="#2EA3FB"/>
</g>
<defs>
<filter id="filter0_d_102_3" x="0" y="0" width="24" height="24" filterUnits="userSpaceOnUse" color-interpolation-filters="sRGB">
<feFlood flood-opacity="0" result="BackgroundImageFix"/>
<feColorMatrix in="SourceAlpha" type="matrix" values="0 0 0 0 0 0 0 0 0 0 0 0 0 0 0 0 0 0 127 0" result="hardAlpha"/>
<feOffset dy="4"/>
<feGaussianBlur stdDeviation="2"/>
<feComposite in2="hardAlpha" operator="out"/>
<feColorMatrix type="matrix" values="0 0 0 0 0 0 0 0 0 0 0 0 0 0 0 0 0 0 0.25 0"/>
<feBlend mode="normal" in2="BackgroundImageFix" result="effect1_dropShadow_102_3"/>
<feBlend mode="normal" in="SourceGraphic" in2="effect1_dropShadow_102_3" result="shape"/>
</filter>
</defs>
</svg>
