<svg width="28" height="28" viewBox="0 0 28 28" fill="none" xmlns="http://www.w3.org/2000/svg">
<path opacity="0.5" d="M11.6664 23.3334H16.3331C20.7328 23.3334 22.9327 23.3334 24.2996 21.9665C25.6664 20.5997 25.6664 18.3998 25.6664 14C25.6664 13.4845 25.6645 12.124 25.6622 11.6667H2.33333C2.33113 12.124 2.33305 13.4845 2.33305 14C2.33305 18.3998 2.33305 20.5997 3.69989 21.9665C5.06673 23.3334 7.26661 23.3334 11.6664 23.3334Z" fill="white"/>
<path d="M11.6607 4.66669H16.3394C20.7505 4.66669 22.9561 4.66669 24.3264 5.96843C25.3131 6.90571 25.5894 8.25427 25.6667 10.5V11.6667H2.33337V10.5C2.41072 8.25427 2.68699 6.90571 3.67365 5.96843C5.04401 4.66669 7.24957 4.66669 11.6607 4.66669Z" fill="white"/>
<path d="M14.5834 17.7917C14.1001 17.7917 13.7084 18.1835 13.7084 18.6667C13.7084 19.1499 14.1001 19.5417 14.5834 19.5417H16.3334C16.8166 19.5417 17.2084 19.1499 17.2084 18.6667C17.2084 18.1835 16.8166 17.7917 16.3334 17.7917H14.5834Z" fill="white"/>
<path d="M7 17.7917C6.51675 17.7917 6.125 18.1835 6.125 18.6667C6.125 19.1499 6.51675 19.5417 7 19.5417H11.6667C12.1499 19.5417 12.5417 19.1499 12.5417 18.6667C12.5417 18.1835 12.1499 17.7917 11.6667 17.7917H7Z" fill="white"/>
</svg>
