<svg width="50" height="50" viewBox="0 0 50 50" fill="none" xmlns="http://www.w3.org/2000/svg">
<path d="M25 50C38.8071 50 50 38.8071 50 25C50 11.1929 38.8071 0 25 0C11.1929 0 0 11.1929 0 25C0 38.8071 11.1929 50 25 50Z" fill="#303B51"/>
<path d="M34.2743 13.9586L36.0026 15.687C36.5991 16.2835 36.5991 17.2507 36.0026 17.8473L17.859 35.9907C17.2625 36.5873 16.2953 36.5872 15.6987 35.9907L13.9704 34.2623C13.3739 33.6658 13.3739 32.6986 13.9704 32.102L32.1139 13.9584C32.7105 13.362 33.6777 13.362 34.2743 13.9586Z" fill="white"/>
<path d="M36.0026 34.2624L34.2742 35.9908C33.6777 36.5873 32.7105 36.5873 32.1139 35.9908L13.9704 17.8472C13.3739 17.2507 13.3739 16.2835 13.9704 15.6869L15.6988 13.9585C16.2953 13.362 17.2625 13.362 17.8591 13.9585L36.0026 32.1021C36.5992 32.6987 36.5992 33.6659 36.0026 34.2624Z" fill="white"/>
</svg>
