<svg width="24" height="24" viewBox="0 0 24 24" fill="none" xmlns="http://www.w3.org/2000/svg">
<g clip-path="url(#clip0_157_38)">
<path d="M14.3628 12.9372C14.0861 12.7986 13.4699 12.6119 12.7364 12.5633C12.0025 12.5148 11.0613 12.5633 11.0613 12.5633V15.7403C11.0613 15.7403 12.0441 15.7613 12.702 15.7128C13.3592 15.6643 14.0377 15.4983 14.3769 15.3112C14.7158 15.1243 15.1243 14.8336 15.1243 14.1069C15.1243 13.38 14.6397 13.0756 14.3628 12.9372Z" fill="white"/>
<path d="M12.2934 11.0889C12.8335 11.068 13.408 10.9436 13.8229 10.7151C14.2383 10.4867 14.4736 10.127 14.46 9.58691C14.4459 9.04696 14.0862 8.5902 13.4772 8.40309C12.8679 8.21619 12.4598 8.20233 11.9958 8.19545C11.532 8.18868 11.0613 8.23016 11.0613 8.23016V11.0889C11.0613 11.0889 11.7535 11.1097 12.2934 11.0889Z" fill="white"/>
<path d="M12.0026 0C5.37377 0 0 5.37367 0 12.0026C0 18.6314 5.37377 24.0052 12.0026 24.0052C18.6314 24.0052 24.005 18.6314 24.005 12.0026C24.005 5.37367 18.6314 0 12.0026 0ZM16.8897 16.5918C15.9964 17.2149 15.0413 17.3258 14.6191 17.3809C14.4107 17.4083 14.0537 17.4372 13.6709 17.4597V19.866H12.1895V17.4986C11.9127 17.4986 11.5163 17.4986 11.0613 17.4986V19.866H9.58002V17.4986C8.11405 17.4986 6.66597 17.4986 6.66597 17.4986L6.97044 15.7194C6.97044 15.7194 7.55876 15.7194 7.85635 15.7194C8.15416 15.7194 8.27851 15.6917 8.40308 15.5742C8.52764 15.4564 8.55537 15.2766 8.55537 15.131C8.55537 14.9856 8.55537 9.38582 8.55537 9.00165C8.55537 8.6177 8.52415 8.51377 8.34762 8.31661C8.17109 8.11902 7.75592 8.09309 7.52214 8.09309C7.28857 8.09309 6.66586 8.09309 6.66586 8.09309V6.55506C6.66586 6.55506 8.0677 6.55506 9.57991 6.55506V4.18085H11.0611V6.55506C11.4727 6.55506 11.8588 6.55506 12.1893 6.55506V4.18085H13.6707V6.58352C14.775 6.652 15.5971 6.86239 16.3147 7.3926C17.2424 8.07785 17.1937 9.26835 17.173 9.55218C17.1523 9.83602 17.0278 10.383 16.7783 10.7357C16.5294 11.0888 15.9202 11.4419 15.9202 11.4419C15.9202 11.4419 16.64 11.5941 17.1456 11.9749C17.6505 12.3556 18.0247 13.0269 18.0034 14.0099C17.9831 14.9928 17.7824 15.9689 16.8897 16.5918Z" fill="white"/>
</g>
<defs>
<clipPath id="clip0_157_38">
<rect width="24" height="24" fill="white"/>
</clipPath>
</defs>
</svg>
