<svg width="8" height="8" viewBox="0 0 8 8" fill="none" xmlns="http://www.w3.org/2000/svg">
<path d="M1.02633 1.02629L1.02629 1.02633C0.881395 1.17127 0.8 1.36781 0.8 1.57275C0.8 1.77769 0.881395 1.97424 1.02629 2.11917L1.02631 2.1192L2.91057 4.00346L1.02631 5.88772L1.02629 5.8877L1.02387 5.8902C0.883087 6.03597 0.805185 6.2312 0.806946 6.43384C0.808707 6.63649 0.88999 6.83033 1.03329 6.97363C1.17658 7.11693 1.37043 7.19821 1.57308 7.19997C1.77572 7.20173 1.97095 7.12383 2.11672 6.98304L2.11674 6.98307L2.1192 6.98061L4.00346 5.09635L5.88772 6.98061L5.8877 6.98063L5.8902 6.98304C6.03597 7.12383 6.2312 7.20173 6.43384 7.19997C6.63649 7.19821 6.83033 7.11693 6.97363 6.97363C7.11693 6.83033 7.19821 6.63649 7.19997 6.43384C7.20173 6.2312 7.12383 6.03597 6.98304 5.8902L6.98307 5.89018L6.98061 5.88772L5.09635 4.00346L6.98061 2.1192L6.98063 2.11922L6.98304 2.11672C7.12383 1.97095 7.20173 1.77572 7.19997 1.57308C7.19821 1.37043 7.11693 1.17658 6.97363 1.03329C6.83033 0.88999 6.63649 0.808707 6.43384 0.806946C6.2312 0.805185 6.03597 0.883087 5.8902 1.02387L5.89018 1.02385L5.88772 1.02631L4.00346 2.91057L2.1192 1.02631L2.11917 1.02629C1.97424 0.881395 1.77769 0.8 1.57275 0.8C1.36781 0.8 1.17127 0.881395 1.02633 1.02629Z" fill="#B4B4B4" stroke="#B4B4B4" stroke-width="0.4"/>
</svg>
