<svg width="22" height="22" viewBox="0 0 22 22" fill="none" xmlns="http://www.w3.org/2000/svg">
<circle cx="11" cy="11" r="11" fill="#A8AFC2"/>
<path d="M9.43425 7.3746C10.1309 6.12487 10.4792 5.5 11 5.5C11.5208 5.5 11.8691 6.12487 12.5657 7.3746L12.746 7.69793C12.9439 8.05306 13.0429 8.23063 13.1973 8.3478C13.3516 8.46495 13.5439 8.50844 13.9283 8.59543L14.2782 8.67461C15.6311 8.9807 16.3075 9.13374 16.4684 9.65126C16.6294 10.1687 16.1682 10.708 15.246 11.7864L15.0073 12.0655C14.7453 12.3719 14.6142 12.5251 14.5553 12.7148C14.4963 12.9043 14.5161 13.1088 14.5558 13.5176L14.5918 13.8899C14.7313 15.3288 14.801 16.0483 14.3796 16.3681C13.9583 16.688 13.325 16.3963 12.0584 15.8131L11.7307 15.6623C11.3707 15.4965 11.1908 15.4137 11 15.4137C10.8092 15.4137 10.6293 15.4965 10.2694 15.6623L9.94162 15.8131C8.67497 16.3963 8.04165 16.688 7.62034 16.3681C7.19902 16.0483 7.26874 15.3288 7.40817 13.8899L7.44424 13.5176C7.48387 13.1088 7.50368 12.9043 7.44473 12.7148C7.38578 12.5251 7.25474 12.3719 6.99266 12.0655L6.75406 11.7864C5.83179 10.708 5.37066 10.1687 5.53158 9.65126C5.69251 9.13374 6.36892 8.9807 7.72175 8.67461L8.07174 8.59543C8.45614 8.50844 8.64837 8.46495 8.80271 8.3478C8.95705 8.23063 9.05605 8.05306 9.25398 7.69793L9.43425 7.3746Z" fill="black"/>
</svg>
