<svg width="22" height="22" viewBox="0 0 22 22" fill="none" xmlns="http://www.w3.org/2000/svg">
<circle cx="11" cy="11" r="11" fill="#A8AFC2"/>
<path d="M10.34 15.4H4.40002L5.55436 12.9959C5.60329 12.8939 5.68779 12.8064 5.79696 12.7447C5.90613 12.6831 6.03496 12.6501 6.16684 12.65H8.5732C8.70509 12.6501 8.83392 12.6831 8.94309 12.7447C9.05226 12.8064 9.13676 12.8939 9.18568 12.9959L10.34 15.4ZM15.8332 12.65H13.4268C13.295 12.6501 13.1661 12.6831 13.057 12.7447C12.9478 12.8064 12.8633 12.8939 12.8144 12.9959L11.66 15.4H17.6L16.4457 12.9959C16.3968 12.8939 16.3123 12.8064 16.2031 12.7447C16.0939 12.6831 15.9651 12.6501 15.8332 12.65ZM9.18436 9.14594L8.03002 11.55H13.97L12.8157 9.14594C12.7668 9.04388 12.6823 8.95638 12.5731 8.89472C12.4639 8.83306 12.3351 8.80006 12.2032 8.79999H9.79684C9.66496 8.80006 9.53613 8.83306 9.42696 8.89472C9.31779 8.95638 9.23329 9.04388 9.18436 9.14594ZM11.66 6.04999V4.94999C11.66 4.80412 11.5905 4.66423 11.4667 4.56109C11.3429 4.45794 11.1751 4.39999 11 4.39999C10.825 4.39999 10.6571 4.45794 10.5333 4.56109C10.4096 4.66423 10.34 4.80412 10.34 4.94999V6.04999C10.34 6.19586 10.4096 6.33576 10.5333 6.4389C10.6571 6.54205 10.825 6.59999 11 6.59999C11.1751 6.59999 11.3429 6.54205 11.4667 6.4389C11.5905 6.33576 11.66 6.19586 11.66 6.04999ZM14.7336 7.56634L15.6669 6.78864C15.7299 6.73791 15.7802 6.67722 15.8148 6.61012C15.8494 6.54301 15.8676 6.47084 15.8683 6.39781C15.8691 6.32479 15.8524 6.25236 15.8192 6.18477C15.786 6.11718 15.737 6.05577 15.6751 6.00413C15.6131 5.95249 15.5394 5.91165 15.4583 5.88399C15.3772 5.85634 15.2903 5.84242 15.2026 5.84306C15.115 5.84369 15.0284 5.85886 14.9479 5.88769C14.8674 5.91651 14.7945 5.95841 14.7336 6.01094L13.8004 6.78864C13.7374 6.83938 13.6871 6.90007 13.6525 6.96717C13.6179 7.03427 13.5997 7.10644 13.5989 7.17947C13.5982 7.2525 13.6149 7.32493 13.6481 7.39252C13.6812 7.46011 13.7303 7.52152 13.7922 7.57316C13.8542 7.6248 13.9279 7.66564 14.009 7.6933C14.0901 7.72095 14.177 7.73487 14.2646 7.73423C14.3523 7.7336 14.4389 7.71842 14.5194 7.6896C14.5999 7.66077 14.6728 7.61887 14.7336 7.56634ZM7.2664 6.01094C7.14193 5.91076 6.97521 5.85532 6.80216 5.85657C6.62911 5.85783 6.46357 5.91567 6.3412 6.01764C6.21883 6.11962 6.14942 6.25757 6.14792 6.40177C6.14642 6.54598 6.21294 6.68491 6.33316 6.78864L7.2664 7.56634C7.39088 7.66653 7.5576 7.72197 7.73065 7.72071C7.9037 7.71946 8.06924 7.66162 8.1916 7.55964C8.31397 7.45767 8.38339 7.31972 8.38489 7.17551C8.38639 7.03131 8.31987 6.89238 8.19964 6.78864L7.2664 6.01094ZM4.40002 9.89999C4.40002 10.0459 4.46956 10.1858 4.59333 10.2889C4.71711 10.392 4.88498 10.45 5.06002 10.45H6.38002C6.55507 10.45 6.72294 10.392 6.84671 10.2889C6.97049 10.1858 7.04002 10.0459 7.04002 9.89999C7.04002 9.75412 6.97049 9.61423 6.84671 9.51109C6.72294 9.40794 6.55507 9.34999 6.38002 9.34999H5.06002C4.88498 9.34999 4.71711 9.40794 4.59333 9.51109C4.46956 9.61423 4.40002 9.75412 4.40002 9.89999ZM16.94 9.34999H15.62C15.445 9.34999 15.2771 9.40794 15.1533 9.51109C15.0296 9.61423 14.96 9.75412 14.96 9.89999C14.96 10.0459 15.0296 10.1858 15.1533 10.2889C15.2771 10.392 15.445 10.45 15.62 10.45H16.94C17.1151 10.45 17.2829 10.392 17.4067 10.2889C17.5305 10.1858 17.6 10.0459 17.6 9.89999C17.6 9.75412 17.5305 9.61423 17.4067 9.51109C17.2829 9.40794 17.1151 9.34999 16.94 9.34999Z" fill="black"/>
</svg>
