<svg width="22" height="22" viewBox="0 0 22 22" fill="none" xmlns="http://www.w3.org/2000/svg">
<circle cx="11" cy="11" r="11" fill="#A8AFC2"/>
<path d="M14.5068 9.78735H7.49335C7.4203 9.78735 7.36108 9.84476 7.36108 9.91556V15.6153C7.36108 15.8277 7.53874 15.9999 7.75787 15.9999H14.2423C14.4614 15.9999 14.6391 15.8277 14.6391 15.6153V9.91556C14.6391 9.84477 14.5798 9.78735 14.5068 9.78735ZM11.0001 14.5932C10.2176 14.5932 9.58103 13.9762 9.58103 13.2177C9.58103 12.6316 10.3012 11.7537 10.7062 11.3202C10.8637 11.1521 11.1366 11.1522 11.2939 11.3202C11.6995 11.7543 12.4191 12.6318 12.4191 13.2177C12.4191 13.9762 11.7826 14.5932 11.0001 14.5932Z" fill="black"/>
<path d="M14.6032 6.68986C14.4549 6.68986 13.6385 6.68986 13.5441 6.68986V6.38461C13.5441 6.17221 13.3664 6 13.1473 6C12.9281 6 12.7505 6.17221 12.7505 6.38461V6.68986C12.5266 6.68986 7.57925 6.68986 7.39679 6.68986C7.17766 6.68986 7 6.86206 7 7.07447C7 7.27519 7.15866 7.43978 7.361 7.45733V9.14635C7.361 9.21715 7.42022 9.27455 7.49327 9.27455H14.5067C14.5798 9.27455 14.639 9.21715 14.639 9.14635V7.45731C14.8413 7.43978 15 7.27517 15 7.07447C15 6.86206 14.8224 6.68986 14.6032 6.68986Z" fill="black"/>
</svg>
