<svg width="22" height="22" viewBox="0 0 22 22" fill="none" xmlns="http://www.w3.org/2000/svg">
<path d="M22 11C22 13.1756 21.3549 15.3023 20.1462 17.1113C18.9375 18.9202 17.2195 20.3301 15.2095 21.1627C13.1995 21.9952 10.9878 22.2131 8.85401 21.7886C6.72022 21.3642 4.76021 20.3165 3.22183 18.7782C1.68345 17.2398 0.635804 15.2798 0.211367 13.146C-0.213071 11.0122 0.00476612 8.80047 0.83733 6.79048C1.66989 4.78049 3.07979 3.06253 4.88873 1.85383C6.69767 0.645139 8.82441 0 11 0C12.4445 0 13.8749 0.284523 15.2095 0.837325C16.5441 1.39013 17.7567 2.20038 18.7782 3.22182C19.7996 4.24327 20.6099 5.4559 21.1627 6.79048C21.7155 8.12506 22 9.55546 22 11ZM18.4903 15.3127C18.4896 15.1963 18.4429 15.0848 18.3604 15.0026C18.278 14.9204 18.1664 14.8741 18.0499 14.8737H17.533V14.3402C17.5323 14.2239 17.4858 14.1127 17.4036 14.0305C17.3214 13.9483 17.2102 13.9018 17.094 13.9011H16.3298V7.70847H17.533C17.66 7.70914 17.7833 7.66586 17.882 7.58599C17.9807 7.50613 18.0487 7.39458 18.0746 7.27026C18.1004 7.14595 18.0825 7.01653 18.0238 6.90393C17.9651 6.79134 17.8693 6.70252 17.7526 6.65252L11.2195 3.82089C11.1505 3.79095 11.076 3.7755 11.0007 3.7755C10.9254 3.7755 10.8509 3.79095 10.7819 3.82089L4.24745 6.65252C4.13073 6.70252 4.03491 6.79134 3.97621 6.90393C3.91752 7.01653 3.89957 7.14595 3.92542 7.27026C3.95126 7.39458 4.0193 7.50613 4.11801 7.58599C4.21671 7.66586 4.34 7.70914 4.46697 7.70847H5.66882V13.9011H4.90603C4.78981 13.9018 4.67856 13.9483 4.59638 14.0305C4.51419 14.1127 4.4677 14.2239 4.46697 14.3402V14.8737H3.95011C3.83365 14.8741 3.72204 14.9204 3.63956 15.0026C3.55708 15.0848 3.5104 15.1963 3.50967 15.3127V15.8449H18.4903V15.3127ZM6.76923 8.73664H8.85614V13.9011H6.76923V8.73664ZM14.882 6.60806H7.11798L11 4.92687L14.882 6.60806ZM9.95655 8.73664H12.0435V13.9011H9.95794L9.95655 8.73664ZM13.1439 8.73664H15.2308V13.9011H13.1439V8.73664Z" fill="#A8AFC2"/>
</svg>
