<svg width="22" height="22" viewBox="0 0 22 22" fill="none" xmlns="http://www.w3.org/2000/svg">
<circle cx="11" cy="11" r="11" fill="#A8AFC2"/>
<path d="M11.8621 16.3875C13.8848 16.0331 16.5 14.7611 16.5 11.4719C16.5 8.47869 13.9937 6.4855 12.1916 5.56965C11.7917 5.36642 11.3235 5.63369 11.3235 6.03806V7.07235C11.3235 7.88795 10.9313 9.37668 9.84132 9.9959C9.28485 10.312 8.68387 9.83887 8.61624 9.26172L8.5607 8.78779C8.49614 8.23683 7.85427 7.90237 7.35056 8.23829C6.44566 8.84175 5.5 9.89849 5.5 11.4719C5.5 15.4944 8.92222 16.5 10.6333 16.5C10.7328 16.5 10.8375 16.4974 10.9464 16.4919C10.1014 16.4288 8.73529 15.9705 8.73529 14.4886C8.73529 13.3294 9.70269 12.5451 10.4377 12.164C10.6354 12.0614 10.8668 12.1946 10.8668 12.3955V12.7288C10.8668 12.9838 10.9796 13.3825 11.2482 13.6555C11.5522 13.9643 11.9983 13.6408 12.0343 13.2346C12.0457 13.1065 12.1931 13.0248 12.3201 13.0896C12.735 13.3017 13.2647 13.7545 13.2647 14.4886C13.2647 15.647 12.5342 16.18 11.8621 16.3875Z" fill="black"/>
</svg>
