<svg width="22" height="22" viewBox="0 0 22 22" fill="none" xmlns="http://www.w3.org/2000/svg">
<path fill-rule="evenodd" clip-rule="evenodd" d="M11 22C17.0752 22 22 17.0752 22 11C22 4.92487 17.0752 0 11 0C4.92487 0 0 4.92487 0 11C0 17.0752 4.92487 22 11 22ZM12.2222 4.27778C12.2222 3.60277 11.675 3.05556 11 3.05556C10.325 3.05556 9.77778 3.60277 9.77778 4.27778V10.6944C9.77778 11.5383 10.4617 12.2222 11.3056 12.2222H15.2778C15.9528 12.2222 16.5 11.675 16.5 11C16.5 10.325 15.9528 9.77778 15.2778 9.77778H12.2222V4.27778Z" fill="#A8AFC2"/>
</svg>
