<svg width="14" height="14" viewBox="0 0 14 14" fill="none" xmlns="http://www.w3.org/2000/svg">
<path fill-rule="evenodd" clip-rule="evenodd" d="M8.65334 0.220497C8.39998 0.116333 8.07874 0.116333 7.43627 0.116333C6.7938 0.116333 6.47256 0.116333 6.2192 0.220497C5.88134 0.359385 5.61291 0.625782 5.47297 0.961079C5.40909 1.11414 5.38409 1.29215 5.3743 1.5518C5.35993 1.93338 5.16275 2.28657 4.82955 2.47749C4.49634 2.66841 4.08955 2.66128 3.7494 2.48285C3.51792 2.36143 3.3501 2.29391 3.18458 2.27229C2.82202 2.22492 2.45535 2.32242 2.16523 2.54336C1.94764 2.70906 1.78702 2.98516 1.46579 3.53733C1.14456 4.08952 0.983947 4.3656 0.948149 4.63548C0.900411 4.9953 0.998664 5.3592 1.22129 5.64714C1.3229 5.77858 1.4657 5.88901 1.68733 6.02722C2.01316 6.23043 2.22281 6.57657 2.22279 6.95843C2.22277 7.34029 2.01313 7.68636 1.68733 7.8895C1.46566 8.02778 1.32284 8.13828 1.22122 8.26972C0.998596 8.55764 0.90035 8.9215 0.94808 9.28132C0.983878 9.55118 1.1445 9.82732 1.46572 10.3795C1.78695 10.9316 1.94757 11.2078 2.16516 11.3734C2.45528 11.5944 2.82195 11.6919 3.18452 11.6445C3.35002 11.6229 3.51784 11.5554 3.74929 11.434C4.08947 11.2555 4.49629 11.2484 4.82951 11.4393C5.16274 11.6303 5.35992 11.9835 5.3743 12.3651C5.38409 12.6247 5.40909 12.8027 5.47297 12.9558C5.61291 13.2911 5.88134 13.5575 6.2192 13.6964C6.47256 13.8005 6.7938 13.8005 7.43627 13.8005C8.07874 13.8005 8.39998 13.8005 8.65334 13.6964C8.99121 13.5575 9.25962 13.2911 9.39954 12.9558C9.46345 12.8027 9.48849 12.6247 9.49827 12.3651C9.51264 11.9835 9.70976 11.6303 10.043 11.4393C10.3762 11.2484 10.783 11.2555 11.1232 11.434C11.3547 11.5554 11.5224 11.6228 11.688 11.6444C12.0505 11.6919 12.4172 11.5944 12.7073 11.3734C12.9249 11.2077 13.0855 10.9316 13.4068 10.3794C13.728 9.82726 13.8886 9.55118 13.9244 9.28132C13.9721 8.9215 13.8739 8.55757 13.6513 8.26965C13.5496 8.13821 13.4068 8.02771 13.1851 7.8895C12.8594 7.68636 12.6497 7.34022 12.6497 6.95836C12.6497 6.57651 12.8594 6.2305 13.1851 6.02736C13.4069 5.88908 13.5497 5.77865 13.6514 5.64714C13.8739 5.35925 13.9722 4.99534 13.9245 4.63552C13.8886 4.36565 13.7281 4.08956 13.4068 3.53738C13.0856 2.9852 12.925 2.70911 12.7074 2.54341C12.4172 2.32247 12.0506 2.22497 11.688 2.27234C11.5225 2.29396 11.3547 2.36147 11.1233 2.48288C10.7831 2.66131 10.3763 2.66845 10.043 2.47751C9.70983 2.28659 9.51264 1.93336 9.49821 1.55176C9.48842 1.29213 9.46345 1.11414 9.39954 0.961079C9.25962 0.625782 8.99121 0.359385 8.65334 0.220497Z" fill="white"/>
<path d="M9.50441 6.95851C9.50441 8.09218 8.57847 9.01114 7.43618 9.01114C6.2939 9.01114 5.36792 8.09218 5.36792 6.95851C5.36792 5.82485 6.2939 4.90588 7.43618 4.90588C8.57847 4.90588 9.50441 5.82485 9.50441 6.95851Z" fill="#1C274C"/>
</svg>
