<svg width="30" height="30" viewBox="0 0 30 30" fill="none" xmlns="http://www.w3.org/2000/svg">
<g clip-path="url(#clip0_1_5)">
<path d="M15 30C23.2843 30 30 23.2843 30 15C30 6.71573 23.2843 0 15 0C6.71573 0 0 6.71573 0 15C0 23.2843 6.71573 30 15 30Z" fill="#1F2F4E"/>
<path d="M23.4375 8.67188H6.5625C6.04687 8.67188 5.625 9.09375 5.625 9.60938V19.4531C5.625 19.9688 6.04687 20.3906 6.5625 20.3906H11.25V23.9062C11.25 24.0938 11.4609 24.2109 11.625 24.0938L16.8516 20.3906H23.4375C23.9531 20.3906 24.375 19.9688 24.375 19.4531V9.60938C24.375 9.09375 23.9531 8.67188 23.4375 8.67188ZM11.25 15.7031C10.5938 15.7031 10.0781 15.1875 10.0781 14.5312C10.0781 13.875 10.5938 13.3594 11.25 13.3594C11.9062 13.3594 12.4219 13.875 12.4219 14.5312C12.4219 15.1875 11.9062 15.7031 11.25 15.7031ZM15 15.7031C14.3438 15.7031 13.8281 15.1875 13.8281 14.5312C13.8281 13.875 14.3438 13.3594 15 13.3594C15.6562 13.3594 16.1719 13.875 16.1719 14.5312C16.1719 15.1875 15.6562 15.7031 15 15.7031ZM18.75 15.7031C18.0938 15.7031 17.5781 15.1875 17.5781 14.5312C17.5781 13.875 18.0938 13.3594 18.75 13.3594C19.4062 13.3594 19.9219 13.875 19.9219 14.5312C19.9219 15.1875 19.4062 15.7031 18.75 15.7031Z" fill="#DBDEE2"/>
</g>
<defs>
<clipPath id="clip0_1_5">
<rect width="30" height="30" fill="white"/>
</clipPath>
</defs>
</svg>
