<?xml version="1.0" encoding="UTF-8"?>
<svg xmlns="http://www.w3.org/2000/svg" xmlns:xlink="http://www.w3.org/1999/xlink" width="16pt" height="16pt" viewBox="0 0 16 16" version="1.1">
<g id="surface1">
<path style=" stroke:none;fill-rule:nonzero;fill:rgb(0%,0%,0%);fill-opacity:1;" d="M 8 0.5 C 3.863281 0.5 0.5 3.867188 0.5 8 C 0.5 12.136719 3.863281 15.5 8 15.5 C 12.132812 15.5 15.5 12.136719 15.5 8 C 15.5 3.867188 12.132812 0.5 8 0.5 Z M 8 1.5 C 11.59375 1.5 14.5 4.40625 14.5 8 C 14.5 11.597656 11.59375 14.5 8 14.5 C 4.402344 14.5 1.5 11.597656 1.5 8 C 1.5 4.40625 4.402344 1.5 8 1.5 Z M 8 1.5 "/>
<path style=" stroke:none;fill-rule:nonzero;fill:rgb(0%,0%,0%);fill-opacity:1;" d="M 7.992188 2.492188 C 7.714844 2.496094 7.496094 2.722656 7.5 3 L 7.5 8 C 7.5 8.277344 7.722656 8.5 8 8.5 L 12 8.5 C 12.277344 8.5 12.5 8.277344 12.5 8 C 12.5 7.722656 12.277344 7.5 12 7.5 L 8.5 7.5 L 8.5 3 C 8.503906 2.863281 8.449219 2.734375 8.355469 2.636719 C 8.257812 2.542969 8.125 2.488281 7.992188 2.492188 Z M 7.992188 2.492188 "/>
</g>
</svg>
