<svg width="26" height="24" viewBox="0 0 26 24" fill="none" xmlns="http://www.w3.org/2000/svg">
<g filter="url(#filter0_d_5_37)">
<path d="M5.54161 15C5.46565 15.0005 5.39044 14.9848 5.32094 14.9541C5.25144 14.9235 5.18922 14.8784 5.13838 14.8219C5.08753 14.7655 5.0492 14.6989 5.02591 14.6266C5.00263 14.5543 4.99491 14.4778 5.00327 14.4023L5.41779 10.633C5.43255 10.5125 5.48757 10.4006 5.57391 10.3153L14.3813 1.5059C14.5413 1.34553 14.7313 1.2183 14.9406 1.13149C15.1498 1.04468 15.3741 1 15.6006 1C15.8271 1 16.0514 1.04468 16.2607 1.13149C16.4699 1.2183 16.6599 1.34553 16.82 1.5059L18.4942 3.18055C18.6545 3.3406 18.7817 3.53071 18.8685 3.73999C18.9553 3.94927 19 4.17361 19 4.40019C19 4.62676 18.9553 4.8511 18.8685 5.06039C18.7817 5.26967 18.6545 5.45977 18.4942 5.61982L9.69226 14.4238C9.60701 14.5102 9.49508 14.5652 9.37464 14.58L5.60622 14.9946L5.54161 15ZM6.47295 10.9345L6.14994 13.853L9.06778 13.53L17.7351 4.86058C17.7954 4.80055 17.8432 4.72922 17.8758 4.65067C17.9084 4.57213 17.9252 4.48792 17.9252 4.40288C17.9252 4.31783 17.9084 4.23363 17.8758 4.15508C17.8432 4.07654 17.7954 4.00521 17.7351 3.94518L16.0555 2.26515C15.9955 2.20491 15.9242 2.15711 15.8457 2.1245C15.7671 2.09188 15.6829 2.0751 15.5979 2.0751C15.5129 2.0751 15.4287 2.09188 15.3502 2.1245C15.2717 2.15711 15.2003 2.20491 15.1403 2.26515L6.47295 10.9345Z" fill="white" stroke="white" stroke-width="0.5"/>
<path d="M16.502 6.99984C16.4381 7.00021 16.3748 6.98796 16.3157 6.96378C16.2565 6.93961 16.2027 6.90399 16.1574 6.85897L13.1428 3.83265C13.0975 3.78736 13.0616 3.73359 13.0371 3.67441C13.0126 3.61523 13 3.55181 13 3.48775C13 3.4237 13.0126 3.36028 13.0371 3.3011C13.0616 3.24192 13.0975 3.18815 13.1428 3.14286C13.188 3.09757 13.2418 3.06164 13.3009 3.03713C13.36 3.01262 13.4234 3 13.4874 3C13.5514 3 13.6148 3.01262 13.674 3.03713C13.7331 3.06164 13.7868 3.09757 13.8321 3.14286L16.8564 6.16918C16.9019 6.21434 16.938 6.26807 16.9627 6.32726C16.9873 6.38646 17 6.44995 17 6.51408C17 6.5782 16.9873 6.6417 16.9627 6.70089C16.938 6.76009 16.9019 6.81381 16.8564 6.85897C16.8099 6.90517 16.7545 6.94147 16.6936 6.96568C16.6327 6.98989 16.5675 7.00151 16.502 6.99984Z" fill="#101820" stroke="white" stroke-width="0.5"/>
<path d="M13.0471 6.11717L8.89575 10.3093L9.64985 11.0708L13.8011 6.87868L13.0471 6.11717Z" fill="#101820" stroke="white" stroke-width="0.5"/>
<path d="M20.4444 15H11.5556C11.4082 15 11.2669 14.9473 11.1627 14.8536C11.0585 14.7598 11 14.6326 11 14.5C11 14.3674 11.0585 14.2402 11.1627 14.1464C11.2669 14.0527 11.4082 14 11.5556 14H20.4444C20.5918 14 20.7331 14.0527 20.8373 14.1464C20.9415 14.2402 21 14.3674 21 14.5C21 14.6326 20.9415 14.7598 20.8373 14.8536C20.7331 14.9473 20.5918 15 20.4444 15Z" fill="#9296A0" stroke="#9296A0" stroke-width="0.5"/>
</g>
<defs>
<filter id="filter0_d_5_37" x="0.75" y="0.75" width="24.5" height="22.5" filterUnits="userSpaceOnUse" color-interpolation-filters="sRGB">
<feFlood flood-opacity="0" result="BackgroundImageFix"/>
<feColorMatrix in="SourceAlpha" type="matrix" values="0 0 0 0 0 0 0 0 0 0 0 0 0 0 0 0 0 0 127 0" result="hardAlpha"/>
<feOffset dy="4"/>
<feGaussianBlur stdDeviation="2"/>
<feComposite in2="hardAlpha" operator="out"/>
<feColorMatrix type="matrix" values="0 0 0 0 0 0 0 0 0 0 0 0 0 0 0 0 0 0 0.25 0"/>
<feBlend mode="normal" in2="BackgroundImageFix" result="effect1_dropShadow_5_37"/>
<feBlend mode="normal" in="SourceGraphic" in2="effect1_dropShadow_5_37" result="shape"/>
</filter>
</defs>
</svg>
