<svg width="22" height="22" viewBox="0 0 22 22" fill="none" xmlns="http://www.w3.org/2000/svg">
<path d="M11 0C4.92478 0 0 4.92478 0 11C0 17.0752 4.92478 22 11 22C17.0752 22 22 17.0752 22 11C22 4.92478 17.0752 0 11 0ZM15.3253 10.5107L13.2805 12.1425L13.9757 14.6648C14.0332 14.8748 13.9552 15.0987 13.7788 15.2269C13.6024 15.3548 13.3654 15.36 13.1835 15.2401L10.9994 13.7992L8.81594 15.2401C8.63405 15.36 8.397 15.3548 8.22027 15.2269C8.04392 15.0987 7.96589 14.8748 8.02343 14.6648L8.71892 12.1425L6.67373 10.5107C6.50392 10.3749 6.43534 10.1476 6.50293 9.94035C6.57014 9.73315 6.75903 9.58929 6.97628 9.57963L9.59011 9.46146L10.5101 7.0122C10.587 6.80844 10.7821 6.6733 10.9994 6.6733C11.2177 6.6733 11.4124 6.80848 11.489 7.0122L12.4094 9.46146L15.0225 9.57963C15.2401 9.58934 15.4293 9.73315 15.4966 9.94035C15.5641 10.1476 15.4958 10.3749 15.3253 10.5107Z" fill="#ECECEC"/>
</svg>
