<svg width="25" height="25" viewBox="0 0 25 25" fill="none" xmlns="http://www.w3.org/2000/svg">
<path d="M3.43009 9.68009C3.125 9.9852 3.125 10.4763 3.125 11.4583V17.7083C3.125 18.6904 3.125 19.1815 3.43009 19.4866C3.7352 19.7917 4.22624 19.7917 5.20833 19.7917C6.19043 19.7917 6.68147 19.7917 6.98657 19.4866C7.29167 19.1815 7.29167 18.6904 7.29167 17.7083V11.4583C7.29167 10.4763 7.29167 9.9852 6.98657 9.68009C6.68147 9.375 6.19043 9.375 5.20833 9.375C4.22624 9.375 3.7352 9.375 3.43009 9.68009Z" fill="#70C2FF"/>
<path opacity="0.4" d="M18.0134 2.38835C17.7083 2.69345 17.7083 3.18449 17.7083 4.16659V17.7083C17.7083 18.6903 17.7083 19.1814 18.0134 19.4865C18.3186 19.7916 18.8096 19.7916 19.7917 19.7916C20.7738 19.7916 21.2648 19.7916 21.5699 19.4865C21.875 19.1814 21.875 18.6903 21.875 17.7083V4.16659C21.875 3.18449 21.875 2.69345 21.5699 2.38835C21.2648 2.08325 20.7738 2.08325 19.7917 2.08325C18.8096 2.08325 18.3186 2.08325 18.0134 2.38835Z" fill="#70C2FF"/>
<path opacity="0.7" d="M10.4167 7.29159C10.4167 6.30949 10.4167 5.81845 10.7218 5.51335C11.0269 5.20825 11.5179 5.20825 12.5 5.20825C13.4821 5.20825 13.9731 5.20825 14.2782 5.51335C14.5833 5.81845 14.5833 6.30949 14.5833 7.29159V17.7083C14.5833 18.6903 14.5833 19.1814 14.2782 19.4865C13.9731 19.7916 13.4821 19.7916 12.5 19.7916C11.5179 19.7916 11.0269 19.7916 10.7218 19.4865C10.4167 19.1814 10.4167 18.6903 10.4167 17.7083V7.29159Z" fill="#70C2FF"/>
<path d="M3.125 22.1355C2.69353 22.1355 2.34375 22.4853 2.34375 22.9167C2.34375 23.3482 2.69353 23.698 3.125 23.698H21.875C22.3065 23.698 22.6562 23.3482 22.6562 22.9167C22.6562 22.4853 22.3065 22.1355 21.875 22.1355H3.125Z" fill="#70C2FF"/>
</svg>
