<svg width="80" height="80" viewBox="0 0 80 80" fill="none" xmlns="http://www.w3.org/2000/svg">
<path d="M79.0208 73.8827L69.695 64.5569L75.6819 58.57C76.52 57.7353 76.8506 56.5165 76.5534 55.3713C76.2561 54.2261 75.3746 53.3246 74.2362 53.0006L50.8633 46.3226C49.7113 45.9887 48.4459 46.3125 47.5877 47.1707C46.7296 48.0289 46.4025 49.281 46.7363 50.4495L53.4143 73.8224C53.7416 74.9576 54.6431 75.8391 55.7884 76.1363C56.0655 76.2097 56.346 76.2432 56.6265 76.2432C57.5013 76.2432 58.3561 75.8994 58.9872 75.2648L64.9741 69.278L74.2999 78.6038C74.951 79.2549 75.8057 79.5821 76.6606 79.5821C77.5155 79.5821 78.3702 79.2549 79.0213 78.6038C80.3263 77.2984 80.3263 75.1882 79.0208 73.8827Z" fill="#7F8397"/>
<path d="M19.897 39.565C19.897 34.0857 21.0923 28.5095 23.0556 23.1772C18.9019 21.6479 14.9318 19.5844 11.2556 16.9399L8.14379 15.0635C3.59938 21.0168 0.647816 28.2892 0 36.226V42.9041C0.657833 50.9644 3.69626 58.3335 8.36416 64.3371L11.0855 62.08C14.8519 59.4222 18.8587 57.3653 23.019 55.8594C21.079 50.5536 19.897 45.0109 19.897 39.565Z" fill="#7F8397"/>
<path d="M39.9309 19.531C42.512 19.531 45.0629 19.2672 47.5671 18.8065C45.3734 14.6261 42.7289 10.7628 39.9309 7.50732C37.1362 10.7628 34.4917 14.6261 32.298 18.8097C34.8057 19.2705 37.35 19.531 39.9309 19.531Z" fill="#7F8397"/>
<path d="M25.7069 17.0288C28.3446 11.6998 31.6569 6.7915 35.2197 2.73134C34.9693 2.51426 34.7188 2.27729 34.4684 2.07351C33.8106 1.52931 33.4434 0.781323 33.3232 0C25.4464 1.22207 18.3211 4.78811 12.6948 10.0202L14.9319 11.3693C18.3278 13.8067 21.9439 15.6765 25.7069 17.0288Z" fill="#7F8397"/>
<path d="M64.354 11.7508L66.4408 10.0813C60.8949 5.11961 54.0165 1.62369 46.4705 0.234619C46.3102 0.929076 45.9829 1.58691 45.3919 2.07445C45.1448 2.27808 44.8943 2.51191 44.6439 2.72884C48.2067 6.79244 51.5223 11.7008 54.16 17.0263C57.7395 15.7409 61.1686 13.9946 64.354 11.7508Z" fill="#7F8397"/>
<path d="M25.6508 61.99C21.9578 63.2822 18.4218 65.0719 15.143 67.3791L12.8759 69.2623C19.6306 75.4761 28.5056 79.3261 38.2555 79.5831C33.5509 74.9986 29.0332 68.8549 25.6508 61.99Z" fill="#7F8397"/>
<path d="M32.267 60.2562C35.3254 66.1094 39.2721 71.335 43.2689 75.1514V59.5984H39.5659C37.0984 59.5985 34.6643 59.8355 32.267 60.2562Z" fill="#7F8397"/>
<path d="M59.9648 39.5225C59.9648 39.5392 59.9548 39.5492 59.9548 39.5658H59.9648V42.9047H76.6598C78.5062 42.9047 79.9987 41.4089 79.9987 39.5658C79.9987 30.3535 76.6263 21.7657 71.0803 14.9141L68.3657 17.0877C64.7195 19.6554 60.8397 21.6622 56.8062 23.1547C58.7662 28.4838 59.9648 34.0532 59.9648 39.5225Z" fill="#7F8397"/>
<path d="M53.2869 39.565H53.2969C53.2969 39.5482 53.2869 39.5382 53.2869 39.5216C53.2869 34.7402 52.1783 29.7984 50.3787 25.0571C46.9629 25.8051 43.4737 26.2091 39.931 26.2091C36.385 26.2091 32.8924 25.8051 29.4866 25.0604C27.6868 29.8152 26.575 34.7669 26.575 39.565C26.575 44.3431 27.6768 49.2714 29.4631 54.0061C32.772 53.305 36.1444 52.921 39.5669 52.921H43.2699V42.9041H53.2869V39.565Z" fill="#7F8397"/>
</svg>
