<svg width="42" height="42" viewBox="0 0 42 42" fill="none" xmlns="http://www.w3.org/2000/svg">
<path d="M21 42C32.5979 42 42 32.5979 42 21C42 9.40202 32.5979 0 21 0C9.40202 0 0 9.40202 0 21C0 24.3592 0.788798 27.5344 2.19127 30.3502C2.56397 31.0985 2.68802 31.9538 2.47195 32.7613L1.22117 37.4359C0.678205 39.4653 2.53474 41.3217 4.56403 40.7788L9.2387 39.5281C10.0463 39.312 10.9015 39.4361 11.6498 39.8087C14.4656 41.2112 17.6408 42 21 42Z" fill="#318ED2"/>
<path d="M8.01819 20.6181C8.01819 22.3051 9.38579 23.6727 11.0727 23.6727C12.7597 23.6727 14.1273 22.3051 14.1273 20.6181C14.1273 18.9312 12.7597 17.5636 11.0727 17.5636C9.38579 17.5636 8.01819 18.9312 8.01819 20.6181Z" fill="#1C274C"/>
<path d="M17.1818 20.6181C17.1818 22.3051 18.5494 23.6727 20.2363 23.6727C21.9232 23.6727 23.2909 22.3051 23.2909 20.6181C23.2909 18.9312 21.9232 17.5636 20.2363 17.5636C18.5494 17.5636 17.1818 18.9312 17.1818 20.6181Z" fill="#1C274C"/>
<path d="M26.3455 20.6181C26.3455 22.3051 27.7131 23.6727 29.4 23.6727C31.0869 23.6727 32.4546 22.3051 32.4546 20.6181C32.4546 18.9312 31.0869 17.5636 29.4 17.5636C27.7131 17.5636 26.3455 18.9312 26.3455 20.6181Z" fill="#1C274C"/>
</svg>
