<svg width="24" height="26" viewBox="0 0 24 26" fill="none" xmlns="http://www.w3.org/2000/svg">
<path d="M14.9524 9.07853C14.9524 6.26403 14.9521 3.44943 14.9518 0.635197C14.9518 0.29323 14.671 0 14.326 0C11.5118 0 8.69793 0.000360021 5.88406 0.000629782C5.32952 0.000629782 5.04303 0.686272 5.4358 1.0794C6.54479 2.18839 7.65414 3.29774 8.76348 4.40708C6.91167 6.25854 5.05985 8.11 3.20839 9.96182C2.05903 11.1112 3.84934 12.888 5.0014 11.7356C6.84989 9.8871 8.69829 8.03869 10.5464 6.1902C11.6575 7.30126 12.7678 8.41159 13.8785 9.52229C14.0894 9.73315 14.3419 9.74493 14.5494 9.64872C14.7729 9.57489 14.9524 9.38516 14.9524 9.07853Z" fill="#C5C5C5"/>
<path d="M6.2902 24.8575C6.2902 25.4419 5.81676 25.9154 5.23228 25.9154H1.05791C0.47415 25.9154 0 25.442 0 24.8575V17.6769C0 17.0925 0.47415 16.619 1.05791 16.619H5.23228C5.81667 16.619 6.2902 17.0925 6.2902 17.6769V24.8575Z" fill="#C5C5C5"/>
<path d="M15.0332 24.8575C15.0332 25.4419 14.5598 25.9154 13.9753 25.9154H9.80095C9.21719 25.9154 8.74304 25.442 8.74304 24.8575V12.4648C8.74304 11.8804 9.21719 11.4069 9.80095 11.4069H13.9753C14.5597 11.4069 15.0332 11.8803 15.0332 12.4648V24.8575Z" fill="#C5C5C5"/>
<path d="M23.9999 24.8575C23.9999 25.4419 23.5265 25.9154 22.942 25.9154H18.7676C18.1839 25.9154 17.7097 25.442 17.7097 24.8575V7.25261C17.7097 6.66822 18.1839 6.1947 18.7676 6.1947H22.942C23.5264 6.1947 23.9999 6.66813 23.9999 7.25261V24.8575Z" fill="#C5C5C5"/>
</svg>
