<svg width="80" height="80" viewBox="0 0 80 80" fill="none" xmlns="http://www.w3.org/2000/svg">
<path d="M30.6666 23C31.6666 22.0056 32.8688 21.2379 34.1916 20.749C35.5144 20.2601 36.9269 20.0615 38.3333 20.1666C41.5858 20.2306 44.6891 21.5435 47 23.8333C51.8333 28.5 52.6666 35.8333 48.6666 40C48.0451 40.6511 47.6984 41.5166 47.6984 42.4166C47.6984 43.3167 48.0451 44.1822 48.6666 44.8333C49.3366 45.351 50.1536 45.6428 50.9999 45.6666C51.4383 45.6807 51.8745 45.5984 52.2776 45.4256C52.6807 45.2528 53.0411 44.9938 53.3333 44.6666C58.6666 39.1666 59.1666 31 55.4999 24.1666H56.6666C58.0675 24.184 59.4568 23.9117 60.7474 23.3668C62.0381 22.8219 63.2021 22.0161 64.1666 21C66.0873 18.9877 67.131 16.2954 67.0685 13.5144C67.006 10.7333 65.8424 8.09063 63.8333 6.16665C61.8724 4.37572 59.322 3.36743 56.6666 3.33331C53.7957 3.34795 51.0443 4.4844 48.9999 6.49998C47.9122 7.67209 47.1065 9.07717 46.6443 10.608C46.1822 12.1389 46.0758 13.7551 46.3333 15.3333C43.8865 14.1601 41.2133 13.5345 38.4999 13.5C36.1496 13.3386 33.7929 13.7037 31.6016 14.5686C29.4103 15.4336 27.4396 16.7767 25.8333 18.5C25.464 18.8009 25.1636 19.1774 24.9521 19.6041C24.7407 20.0309 24.6231 20.4981 24.6074 20.9741C24.5917 21.4502 24.6782 21.924 24.8611 22.3638C25.0439 22.8036 25.3189 23.1991 25.6675 23.5237C26.0161 23.8482 26.4302 24.0943 26.882 24.2454C27.3337 24.3964 27.8125 24.4489 28.2862 24.3992C28.7599 24.3496 29.2175 24.199 29.6281 23.9577C30.0387 23.7163 30.3928 23.3897 30.6666 23ZM53.8333 11.1666C54.2057 10.7955 54.6476 10.5014 55.1338 10.3013C55.62 10.1011 56.1408 9.99869 56.6666 9.99998C57.5966 10.0042 58.4903 10.3617 59.1666 11C59.5407 11.3312 59.8432 11.7355 60.0554 12.1878C60.2677 12.6402 60.3852 13.1312 60.4008 13.6307C60.4164 14.1301 60.3298 14.6275 60.1462 15.0923C59.9626 15.557 59.686 15.9793 59.3333 16.3333C59.0145 16.7269 58.6059 17.0382 58.1419 17.2412C57.6779 17.4442 57.172 17.5329 56.6666 17.5C55.6823 17.5215 54.7274 17.1634 54 16.5C53.6258 16.1687 53.3234 15.7645 53.1111 15.3121C52.8989 14.8597 52.7813 14.3687 52.7657 13.8693C52.7501 13.3698 52.8368 12.8724 53.0204 12.4077C53.2039 11.9429 53.4806 11.5206 53.8333 11.1666Z" fill="#7F8397"/>
<path d="M35.6667 64C30 62.5 26.6667 56 28.3333 49.5C30 43 35.8333 38.5 41.5 40C41.9268 40.0987 42.3689 40.1124 42.801 40.0402C43.2331 39.968 43.6467 39.8113 44.0182 39.5791C44.3897 39.3469 44.7118 39.0438 44.9661 38.687C45.2203 38.3303 45.4017 37.9269 45.5 37.5C45.625 37.084 45.6631 36.6468 45.612 36.2155C45.5608 35.7842 45.4215 35.368 45.2027 34.9929C44.9838 34.6177 44.6901 34.2916 44.3399 34.0347C43.9896 33.7779 43.5903 33.5959 43.1667 33.5C39.5309 32.7075 35.7367 33.1062 32.345 34.6369C28.9533 36.1677 26.1443 38.7493 24.3333 42C23.6832 40.5144 22.6978 39.1995 21.4544 38.1586C20.211 37.1176 18.7434 36.3787 17.1667 36L14.8333 35.6666C12.4888 35.6736 10.2141 36.4651 8.37161 37.9149C6.52912 39.3648 5.22486 41.3895 4.66666 43.6666C4.31936 45.0023 4.24313 46.394 4.44247 47.7596C4.6418 49.1252 5.11267 50.437 5.82727 51.6177C6.54188 52.7983 7.48574 53.8239 8.60316 54.6338C9.72058 55.4437 10.9889 56.0216 12.3333 56.3333L14.8333 56.6666C17.2035 56.6573 19.4984 55.8335 21.3333 54.3333C21.4825 58.0404 22.806 61.6043 25.1127 64.5101C27.4194 67.416 30.59 69.5136 34.1667 70.5H34.8333C35.5903 70.5239 36.3329 70.2894 36.9387 69.835C37.5446 69.3806 37.9777 68.7334 38.1667 68C38.2904 67.5724 38.3225 67.1236 38.2611 66.6828C38.1996 66.2419 38.046 65.819 37.8101 65.4416C37.5742 65.0642 37.2614 64.7407 36.892 64.4923C36.5227 64.2439 36.1052 64.0761 35.6667 64ZM18.5 47C18.3134 47.8386 17.8505 48.5902 17.1856 49.1342C16.5207 49.6782 15.6923 49.9831 14.8333 50H13.8333C12.8707 49.762 12.0378 49.1602 11.5095 48.3211C10.9812 47.482 10.7986 46.4709 11 45.5C11.1927 44.6334 11.6803 43.8606 12.3794 43.3134C13.0785 42.7663 13.9458 42.4788 14.8333 42.5H15.6667C16.1512 42.5973 16.6097 42.7961 17.0118 43.0834C17.414 43.3706 17.7508 43.7398 18 44.1666C18.4978 45.0218 18.675 46.0261 18.5 47Z" fill="#7F8397"/>
<path d="M67.5 56.5C69.6946 54.9989 71.565 53.0718 73 50.8333C74.2871 48.8604 75.1323 46.6324 75.4775 44.3022C75.8228 41.972 75.6599 39.5947 75 37.3333C74.8848 36.9034 74.6847 36.5009 74.4114 36.1495C74.1381 35.7982 73.7973 35.5051 73.4089 35.2877C73.0205 35.0702 72.5926 34.9327 72.1502 34.8833C71.7079 34.8339 71.2601 34.8736 70.8333 35C69.9954 35.268 69.2975 35.8565 68.8916 36.637C68.4858 37.4175 68.4049 38.3268 68.6667 39.1667C69.0606 40.5145 69.1452 41.9339 68.9144 43.3191C68.6835 44.7042 68.1431 46.0194 67.3333 47.1667C65.582 49.8829 62.9247 51.8907 59.8333 52.8333C53.3333 54.8333 46.6667 51.6667 45 46.1667C44.8848 45.7367 44.6847 45.3342 44.4114 44.9829C44.1381 44.6315 43.7973 44.3385 43.4089 44.121C43.0205 43.9035 42.5926 43.766 42.1502 43.7166C41.7079 43.6672 41.2601 43.7069 40.8333 43.8333C40.4034 43.9485 40.0009 44.1487 39.6495 44.4219C39.2982 44.6952 39.0051 45.0361 38.7876 45.4244C38.5702 45.8128 38.4327 46.2408 38.3833 46.6831C38.3339 47.1255 38.3736 47.5732 38.5 48C39.6678 51.5286 41.9288 54.5937 44.9554 56.7512C47.9819 58.9088 51.6168 60.0466 55.3333 60C54.2042 61.5555 53.5238 63.3911 53.3661 65.3067C53.2085 67.2224 53.5797 69.1445 54.4393 70.8637C55.2989 72.5829 56.6139 74.0331 58.2409 75.0564C59.868 76.0796 61.7448 76.6366 63.6667 76.6667C64.687 76.6622 65.7 76.4934 66.6667 76.1667C68.7049 75.5059 70.4921 74.2374 71.7885 72.5314C73.0849 70.8254 73.8283 68.7637 73.9191 66.623C74.0098 64.4823 73.4434 62.365 72.296 60.5555C71.1485 58.746 69.475 57.3308 67.5 56.5ZM64.8333 69.8333H63.6667C62.877 69.8251 62.1073 69.5833 61.4548 69.1385C60.8023 68.6936 60.2961 68.0655 60 67.3333C59.7782 66.3411 59.9269 65.302 60.4181 64.4117C60.9093 63.5215 61.709 62.8415 62.6667 62.5H63.6667C64.5033 62.5074 65.3145 62.7883 65.9766 63.2999C66.6386 63.8115 67.1151 64.5256 67.3333 65.3333C67.5913 66.2614 67.4736 67.2538 67.0058 68.0958C66.538 68.9379 65.7576 69.562 64.8333 69.8333Z" fill="#7F8397"/>
</svg>
