<svg width="28" height="23" viewBox="0 0 28 23" fill="none" xmlns="http://www.w3.org/2000/svg">
<path fill-rule="evenodd" clip-rule="evenodd" d="M28 12.5081C28 12.5386 28 12.5694 28 12.6002V15.4002C28 15.431 28 15.4618 28 15.4923C28 16.7334 28.0001 17.8028 27.885 18.6591C27.7616 19.5768 27.4834 20.4566 26.7698 21.17C26.0564 21.8836 25.1766 22.1618 24.2589 22.2853C23.4025 22.4004 22.3332 22.4004 21.0921 22.4002H12.5079C11.2668 22.4004 10.1974 22.4004 9.34107 22.2853C8.42336 22.1618 7.54367 21.8836 6.83013 21.17C6.11661 20.4566 5.83837 19.5768 5.71499 18.6591C5.59985 17.8028 5.59991 16.7334 5.59998 15.4923V12.5081C5.59991 11.267 5.59985 10.1977 5.71499 9.3413C5.83837 8.4236 6.11661 7.54391 6.83013 6.83037C7.54367 6.11685 8.42336 5.83861 9.34107 5.71522C10.1974 5.6001 11.2668 5.60015 12.5079 5.60022H21C21.0308 5.60022 21.0616 5.60022 21.0921 5.60022C22.3332 5.60015 23.4025 5.6001 24.2589 5.71523C25.1766 5.83862 26.0564 6.11685 26.7698 6.83037C27.4834 7.54391 27.7616 8.4236 27.885 9.3413C28.0001 10.1977 28 11.267 28 12.5081ZM12.6 14.0002C12.6 11.6806 14.4805 9.80022 16.8 9.80022C19.1196 9.80022 21 11.6806 21 14.0002C21 16.3199 19.1196 18.2002 16.8 18.2002C14.4805 18.2002 12.6 16.3199 12.6 14.0002Z" fill="#CFCFCF"/>
<path d="M22.3951 4.20564C21.9944 4.20008 21.5825 4.20013 21.1664 4.20018H12.4338C11.2526 4.20006 10.1047 4.19993 9.15468 4.32767C8.08263 4.4718 6.85777 4.82294 5.84034 5.84038C4.8229 6.85782 4.47175 8.08269 4.32762 9.15476C4.19989 10.1048 4.2 11.2527 4.20013 12.434V15.5663C4.20008 15.9767 4.20004 16.383 4.20536 16.7783C4.1147 16.7738 4.02703 16.7685 3.94244 16.7619C3.41993 16.7216 2.89918 16.6327 2.39329 16.3916C1.52364 15.9772 0.822881 15.2765 0.408481 14.4069C0.167401 13.9009 0.0785155 13.3802 0.0381955 12.8578C-2.44446e-05 12.3623 -1.0555e-05 11.7617 1.7445e-05 11.0656L3.42602e-06 6.90798C-6.65739e-05 5.66692 -0.000122604 4.59756 0.115013 3.74124C0.238395 2.82352 0.516631 1.94383 1.23017 1.23029C1.94369 0.516771 2.82338 0.238535 3.7411 0.115153C4.59742 1.73986e-05 5.66677 7.34286e-05 6.90785 0.000143429L17.5546 7.33336e-05C18.1451 -0.000444666 18.6539 -0.000892324 19.1065 0.0991376C20.7021 0.451839 21.9483 1.69803 22.301 3.29366C22.363 3.57405 22.3864 3.87601 22.3951 4.20564Z" fill="#CFCFCF"/>
</svg>
