<svg width="28" height="22" viewBox="0 0 28 22" fill="none" xmlns="http://www.w3.org/2000/svg">
<path fill-rule="evenodd" clip-rule="evenodd" d="M4.19537 6.43103C4.19537 2.87927 7.01884 0 10.5018 0C13.9847 0 16.8081 2.87927 16.8081 6.43103C16.8081 9.98282 13.9847 12.8621 10.5018 12.8621C7.01884 12.8621 4.19537 9.98282 4.19537 6.43103Z" fill="#CFCFCF"/>
<path d="M17.3231 10.0941C17.2594 10.2173 17.2864 10.3709 17.3961 10.4538C18.2112 11.0691 19.2198 11.4329 20.3116 11.4329C23.0206 11.4329 25.2166 9.19348 25.2166 6.43099C25.2166 3.66851 23.0206 1.42908 20.3116 1.42908C19.2198 1.42908 18.2112 1.79293 17.3961 2.40821C17.2864 2.4911 17.2594 2.64466 17.3231 2.76786C17.8892 3.86171 18.2095 5.1082 18.2095 6.43099C18.2095 7.75378 17.8892 9.00026 17.3231 10.0941Z" fill="#CFCFCF"/>
<path fill-rule="evenodd" clip-rule="evenodd" d="M3.69246 15.2905C5.41951 14.5261 7.68552 14.2911 10.5017 14.2911C13.3203 14.2911 15.5879 14.5265 17.3156 15.2927C19.1975 16.1271 20.3414 17.5485 20.9409 19.5554C21.2219 20.4961 20.529 21.4367 19.5742 21.4367H1.43178C0.475841 21.4367 -0.218477 20.4947 0.0633762 19.5523C0.663701 17.5451 1.80928 16.1241 3.69246 15.2905Z" fill="#CFCFCF"/>
<path d="M17.9551 12.9139C17.375 12.9506 17.3409 13.7455 17.874 13.9819C19.3348 14.6297 20.4348 15.5834 21.2237 16.8006C21.871 17.7994 22.8762 18.5784 24.0502 18.5784H26.5455C27.5366 18.5784 28.2598 17.5741 27.9111 16.593C27.8911 16.5366 27.8702 16.4806 27.8486 16.425C27.3687 15.1894 26.5463 14.2797 25.3284 13.6999C24.185 13.1556 22.7536 12.9309 21.0673 12.863L21.0395 12.8619H21.0119C20.0186 12.8619 18.9811 12.8489 17.9551 12.9139Z" fill="#CFCFCF"/>
</svg>
