<svg width="35" height="35" viewBox="0 0 35 35" fill="none" xmlns="http://www.w3.org/2000/svg">
<g filter="url(#filter0_d_3_4)">
<path d="M17.5 4.05002C14.665 4.05002 12.505 6.21002 12.505 8.91002C12.505 11.61 14.8 13.77 17.5 13.77C20.2 13.77 22.495 11.61 22.495 8.91002C22.495 6.21002 20.335 4.05002 17.5 4.05002ZM17.5 11.205C16.15 11.205 15.205 10.26 15.205 9.04502C15.205 7.83002 16.15 6.75002 17.5 6.75002C18.85 6.75002 19.795 7.69502 19.795 8.91002C19.795 10.125 18.85 11.205 17.5 11.205Z" fill="white"/>
<path d="M17.5 0C10.075 0 4 6.075 4 13.5C4 16.875 5.35 20.25 7.645 22.68C10.21 25.38 13.72 27 17.5 27C21.28 27 24.79 25.515 27.355 22.68C29.65 20.25 31 16.875 31 13.5C31 6.075 24.925 0 17.5 0ZM16.42 24.3C16.285 24.3 16.15 24.3 16.015 24.3C15.745 24.3 15.61 24.3 15.34 24.165C15.205 24.165 15.07 24.165 14.935 24.03C14.665 24.03 14.53 23.895 14.26 23.895C14.125 23.895 13.99 23.76 13.855 23.76C13.72 23.76 13.45 23.625 13.315 23.49C13.18 23.49 13.045 23.355 12.91 23.355C12.775 23.22 12.505 23.22 12.37 23.085C12.235 22.95 12.1 22.815 11.965 22.815C11.83 22.68 11.695 22.545 11.425 22.545C11.29 22.41 11.155 22.41 11.02 22.275C10.885 22.14 10.75 22.005 10.615 21.87C10.48 21.735 10.345 21.735 10.21 21.6L10.075 21.465V21.33C10.75 19.035 12.64 17.55 14.8 17.55H20.2C22.36 17.55 24.25 19.035 24.925 21.33L24.79 21.465C24.655 21.6 24.52 21.735 24.385 21.735C24.25 21.87 24.115 22.005 23.98 22.14C23.845 22.275 23.71 22.275 23.575 22.41C23.44 22.545 23.305 22.68 23.035 22.68C22.9 22.815 22.765 22.815 22.63 22.95C22.495 23.085 22.225 23.085 22.09 23.22C21.955 23.22 21.82 23.355 21.685 23.355C21.55 23.49 21.28 23.49 21.145 23.625C21.01 23.625 20.875 23.76 20.74 23.76C20.47 23.76 20.335 23.895 20.065 23.895C19.93 23.895 19.795 24.03 19.66 24.03C19.39 24.03 19.255 24.165 18.985 24.165C18.85 24.165 18.715 24.165 18.58 24.165C18.175 24.165 17.905 24.165 17.5 24.165C17.095 24.165 16.825 24.3 16.42 24.3ZM26.815 19.035C25.465 16.47 22.9 14.85 20.2 14.85H14.8C11.965 14.85 9.4 16.47 8.185 19.035C7.24 17.28 6.7 15.525 6.7 13.5C6.7 7.56 11.56 2.7 17.5 2.7C23.44 2.7 28.3 7.56 28.3 13.5C28.3 15.525 27.76 17.28 26.815 19.035Z" fill="white"/>
</g>
<defs>
<filter id="filter0_d_3_4" x="0" y="0" width="35" height="35" filterUnits="userSpaceOnUse" color-interpolation-filters="sRGB">
<feFlood flood-opacity="0" result="BackgroundImageFix"/>
<feColorMatrix in="SourceAlpha" type="matrix" values="0 0 0 0 0 0 0 0 0 0 0 0 0 0 0 0 0 0 127 0" result="hardAlpha"/>
<feOffset dy="4"/>
<feGaussianBlur stdDeviation="2"/>
<feComposite in2="hardAlpha" operator="out"/>
<feColorMatrix type="matrix" values="0 0 0 0 0 0 0 0 0 0 0 0 0 0 0 0 0 0 0.25 0"/>
<feBlend mode="normal" in2="BackgroundImageFix" result="effect1_dropShadow_3_4"/>
<feBlend mode="normal" in="SourceGraphic" in2="effect1_dropShadow_3_4" result="shape"/>
</filter>
</defs>
</svg>