<svg width="27" height="27" viewBox="0 0 27 27" fill="none" xmlns="http://www.w3.org/2000/svg">
<path d="M1.50001 12H8.40001L6.45001 10.05C5.85001 9.45 5.85001 8.55 6.45001 7.95C7.05001 7.35 7.95001 7.35 8.55001 7.95L13.05 12.45C13.2 12.6 13.35 12.75 13.35 12.9C13.5 13.2 13.5 13.65 13.35 14.1C13.2 14.25 13.2 14.4 13.05 14.55L8.55001 19.05C8.25001 19.35 7.80001 19.5 7.50001 19.5C7.20001 19.5 6.75001 19.35 6.45001 19.05C5.85001 18.45 5.85001 17.55 6.45001 16.95L8.40001 15H1.50001C0.60001 15 1.00136e-05 14.4 1.00136e-05 13.5C1.00136e-05 12.6 0.60001 12 1.50001 12Z" fill="white"/>
<path d="M8.25 22.65C9.9 23.55 11.7 24 13.5 24C19.35 24 24 19.35 24 13.5C24 7.65 19.35 3 13.5 3C11.7 3 9.9 3.45 8.25 4.35C7.5 4.8 6.6 4.5 6.15 3.75C5.7 3 6 2.1 6.75 1.65C8.85 0.6 11.1 0 13.5 0C21 0 27 6 27 13.5C27 21 21 27 13.5 27C11.1 27 8.85 26.4 6.75 25.2C6 24.75 5.85 23.85 6.15 23.1C6.6 22.5 7.5 22.2 8.25 22.65Z" fill="white"/>
</svg>
